<svg width="45" height="45" viewBox="0 0 45 45" fill="none" xmlns="http://www.w3.org/2000/svg">
<circle cx="22.5" cy="22.5" r="22.5" fill="#C4C4C4" fill-opacity="0.7"/>
<path d="M28.7022 26.3622H27.5736L28.3286 26.8102C29.7286 25.2367 30.5714 23.1939 30.5714 20.9717C30.5714 16.0166 26.4143 12 21.2857 12C16.1571 12 12 16.0166 12 20.9717C12 25.9268 16.1571 29.9434 21.2857 29.9434C23.5857 29.9434 25.7 29.1291 27.3286 27.7764L26.2857 27.1829V28.2733L30.5 32.5L31.5 31.5L32.5 30.5L28.7022 26.3622ZM21.2857 27.1829C17.7286 27.1829 14.8571 24.4086 14.8571 20.9717C14.8571 17.5349 17.7286 14.7605 21.2857 14.7605C24.8429 14.7605 27.7143 17.5349 27.7143 20.9717C27.7143 24.4086 24.8429 27.1829 21.2857 27.1829Z" fill="#565656"/>
</svg>
