<?xml version="1.0" encoding="UTF-8"?>
<!--Generator: CustomSymbols by @serious_bret-->
<!DOCTYPE svg
PUBLIC "-//W3C//DTD SVG 1.1//EN"
       "http://www.w3.org/Graphics/SVG/1.1/DTD/svg11.dtd">
<svg version="1.1" xmlns="http://www.w3.org/2000/svg" xmlns:xlink="http://www.w3.org/1999/xlink" width="3300" height="2200">
 <g id="Notes">
  <rect height="2200" id="artboard" style="fill:white;opacity:1" width="3300" x="0" y="0"/>
  <line id="" style="fill:none;stroke:black;opacity:1;stroke-width:0.5;" x1="263" x2="3036" y1="292" y2="292"/>
  <text id="reftext1" style="stroke:none;fill:black;font-family:-apple-system,&quot;SF Pro Display&quot;,&quot;SF Pro Text&quot;,Helvetica,sans-serif;font-weight:bold;" transform="matrix(1 0 0 1 263 322)">Weight/Scale Variations</text>
  <text id="reftext2" style="stroke:none;fill:black;font-family:-apple-system,&quot;SF Pro Display&quot;,&quot;SF Pro Text&quot;,Helvetica,sans-serif;text-anchor:middle;" transform="matrix(1 0 0 1 559.711 322)">Ultralight</text>
  <text style="stroke:none;fill:black;font-family:-apple-system,&quot;SF Pro Display&quot;,&quot;SF Pro Text&quot;,Helvetica,sans-serif;text-anchor:middle;" transform="matrix(1 0 0 1 856.422 322)">Thin</text>
  <text style="stroke:none;fill:black;font-family:-apple-system,&quot;SF Pro Display&quot;,&quot;SF Pro Text&quot;,Helvetica,sans-serif;text-anchor:middle;" transform="matrix(1 0 0 1 1153.13 322)">Light</text>
  <text style="stroke:none;fill:black;font-family:-apple-system,&quot;SF Pro Display&quot;,&quot;SF Pro Text&quot;,Helvetica,sans-serif;text-anchor:middle;" transform="matrix(1 0 0 1 1449.84 322)">Regular</text>
  <text style="stroke:none;fill:black;font-family:-apple-system,&quot;SF Pro Display&quot;,&quot;SF Pro Text&quot;,Helvetica,sans-serif;text-anchor:middle;" transform="matrix(1 0 0 1 1746.56 322)">Medium</text>
  <text style="stroke:none;fill:black;font-family:-apple-system,&quot;SF Pro Display&quot;,&quot;SF Pro Text&quot;,Helvetica,sans-serif;text-anchor:middle;" transform="matrix(1 0 0 1 2043.27 322)">Semibold</text>
  <text style="stroke:none;fill:black;font-family:-apple-system,&quot;SF Pro Display&quot;,&quot;SF Pro Text&quot;,Helvetica,sans-serif;text-anchor:middle;" transform="matrix(1 0 0 1 2339.98 322)">Bold</text>
  <text style="stroke:none;fill:black;font-family:-apple-system,&quot;SF Pro Display&quot;,&quot;SF Pro Text&quot;,Helvetica,sans-serif;text-anchor:middle;" transform="matrix(1 0 0 1 2636.69 322)">Heavy</text>
  <text style="stroke:none;fill:black;font-family:-apple-system,&quot;SF Pro Display&quot;,&quot;SF Pro Text&quot;,Helvetica,sans-serif;text-anchor:middle;" transform="matrix(1 0 0 1 2933.4 322)">Black</text>
  <line id="" style="fill:none;stroke:black;opacity:1;stroke-width:0.5;" x1="263" x2="3036" y1="1903" y2="1903"/>
  <g id="" transform="matrix(1 0 0 1 263 1933)">
   <path d="M9.24805 0.830078C13.5547 0.830078 17.1387-2.74414 17.1387-7.05078C17.1387-11.3574 13.5449-14.9316 9.23828-14.9316C4.94141-14.9316 1.36719-11.3574 1.36719-7.05078C1.36719-2.74414 4.95117 0.830078 9.24805 0.830078ZM9.24805-0.654297C5.70312-0.654297 2.87109-3.49609 2.87109-7.05078C2.87109-10.6055 5.69336-13.4473 9.23828-13.4473C12.793-13.4473 15.6348-10.6055 15.6445-7.05078C15.6543-3.49609 12.8027-0.654297 9.24805-0.654297ZM6.39648-6.31836L8.50586-6.31836L8.50586-4.19922C8.50586-3.75977 8.79883-3.45703 9.22852-3.45703C9.67773-3.45703 9.9707-3.75977 9.9707-4.19922L9.9707-6.31836L12.0996-6.31836C12.5391-6.31836 12.8418-6.61133 12.8418-7.04102C12.8418-7.48047 12.5391-7.7832 12.0996-7.7832L9.9707-7.7832L9.9707-9.89258C9.9707-10.3418 9.67773-10.6445 9.22852-10.6445C8.79883-10.6445 8.50586-10.3418 8.50586-9.89258L8.50586-7.7832L6.39648-7.7832C5.94727-7.7832 5.64453-7.48047 5.64453-7.04102C5.64453-6.61133 5.94727-6.31836 6.39648-6.31836Z"/>
  </g>
  <g id="" transform="matrix(1 0 0 1 281.506 1933)">
   <path d="M11.709 2.91016C17.1582 2.91016 21.6699-1.61133 21.6699-7.05078C21.6699-12.5 17.1484-17.0117 11.6992-17.0117C6.25977-17.0117 1.74805-12.5 1.74805-7.05078C1.74805-1.61133 6.26953 2.91016 11.709 2.91016ZM11.709 1.25C7.09961 1.25 3.41797-2.44141 3.41797-7.05078C3.41797-11.6602 7.08984-15.3516 11.6992-15.3516C16.3086-15.3516 20-11.6602 20.0098-7.05078C20.0195-2.44141 16.3184 1.25 11.709 1.25ZM7.98828-6.23047L10.8789-6.23047L10.8789-3.32031C10.8789-2.83203 11.2109-2.5 11.6895-2.5C12.1777-2.5 12.5195-2.83203 12.5195-3.32031L12.5195-6.23047L15.4297-6.23047C15.918-6.23047 16.25-6.5625 16.25-7.04102C16.25-7.5293 15.918-7.87109 15.4297-7.87109L12.5195-7.87109L12.5195-10.7617C12.5195-11.2695 12.1777-11.6016 11.6895-11.6016C11.2109-11.6016 10.8789-11.2598 10.8789-10.7617L10.8789-7.87109L7.98828-7.87109C7.48047-7.87109 7.14844-7.5293 7.14844-7.04102C7.14844-6.5625 7.49023-6.23047 7.98828-6.23047Z"/>
  </g>
  <g id="" transform="matrix(1 0 0 1 304.924 1933)">
   <path d="M14.9707 5.66406C21.9336 5.66406 27.6953-0.0976562 27.6953-7.05078C27.6953-14.0137 21.9238-19.7754 14.9609-19.7754C8.00781-19.7754 2.25586-14.0137 2.25586-7.05078C2.25586-0.0976562 8.01758 5.66406 14.9707 5.66406ZM14.9707 3.84766C8.93555 3.84766 4.08203-1.01562 4.08203-7.05078C4.08203-13.0957 8.92578-17.9492 14.9609-17.9492C21.0059-17.9492 25.8594-13.0957 25.8691-7.05078C25.8789-1.01562 21.0156 3.84766 14.9707 3.84766ZM10.0586-6.14258L14.0625-6.14258L14.0625-2.12891C14.0625-1.5918 14.4336-1.2207 14.9512-1.2207C15.4883-1.2207 15.8594-1.5918 15.8594-2.12891L15.8594-6.14258L19.8828-6.14258C20.4102-6.14258 20.791-6.51367 20.791-7.03125C20.791-7.56836 20.4199-7.94922 19.8828-7.94922L15.8594-7.94922L15.8594-11.9531C15.8594-12.5098 15.4883-12.8809 14.9512-12.8809C14.4336-12.8809 14.0625-12.5 14.0625-11.9531L14.0625-7.94922L10.0586-7.94922C9.50195-7.94922 9.13086-7.56836 9.13086-7.03125C9.13086-6.51367 9.51172-6.14258 10.0586-6.14258Z"/>
  </g>
  <text style="stroke:none;fill:black;font-family:-apple-system,&quot;SF Pro Display&quot;,&quot;SF Pro Text&quot;,Helvetica,sans-serif;font-weight:bold;" transform="matrix(1 0 0 1 263 1953)">Design Variations</text>
  <text style="stroke:none;fill:black;font-family:-apple-system,&quot;SF Pro Display&quot;,&quot;SF Pro Text&quot;,Helvetica,sans-serif;" transform="matrix(1 0 0 1 263 1971)">Symbols are supported in up to nine weights and three scales.</text>
  <text style="stroke:none;fill:black;font-family:-apple-system,&quot;SF Pro Display&quot;,&quot;SF Pro Text&quot;,Helvetica,sans-serif;" transform="matrix(1 0 0 1 263 1989)">For optimal layout with text and other symbols, vertically align</text>
  <text style="stroke:none;fill:black;font-family:-apple-system,&quot;SF Pro Display&quot;,&quot;SF Pro Text&quot;,Helvetica,sans-serif;" transform="matrix(1 0 0 1 263 2007)">symbols with the adjacent text.</text>
  <line id="" style="fill:none;stroke:#00AEEF;stroke-width:0.5;opacity:1.0;" x1="776" x2="776" y1="1919" y2="1933"/>
  <g id="" transform="matrix(1 0 0 1 776 1933)">
   <path d="M3.31055 0.126953C3.82812 0.126953 4.08203-0.0683594 4.26758-0.605469L5.52734-4.0625L11.2891-4.0625L12.5488-0.605469C12.7344-0.0683594 12.9883 0.126953 13.4961 0.126953C14.0137 0.126953 14.3457-0.185547 14.3457-0.673828C14.3457-0.839844 14.3164-0.986328 14.2383-1.20117L9.6582-13.3887C9.43359-13.9941 9.0332-14.2871 8.4082-14.2871C7.80273-14.2871 7.39258-13.9941 7.17773-13.3984L2.59766-1.19141C2.51953-0.976562 2.49023-0.830078 2.49023-0.664062C2.49023-0.175781 2.80273 0.126953 3.31055 0.126953ZM6.00586-5.53711L8.37891-12.1094L8.42773-12.1094L10.8008-5.53711Z"/>
  </g>
  <line id="" style="fill:none;stroke:#00AEEF;stroke-width:0.5;opacity:1.0;" x1="792.836" x2="792.836" y1="1919" y2="1933"/>
  <text style="stroke:none;fill:black;font-family:-apple-system,&quot;SF Pro Display&quot;,&quot;SF Pro Text&quot;,Helvetica,sans-serif;font-weight:bold;" transform="matrix(1 0 0 1 776 1953)">Margins</text>
  <text style="stroke:none;fill:black;font-family:-apple-system,&quot;SF Pro Display&quot;,&quot;SF Pro Text&quot;,Helvetica,sans-serif;" transform="matrix(1 0 0 1 776 1971)">Leading and trailing margins on the left and right side of each symbol</text>
  <text style="stroke:none;fill:black;font-family:-apple-system,&quot;SF Pro Display&quot;,&quot;SF Pro Text&quot;,Helvetica,sans-serif;" transform="matrix(1 0 0 1 776 1989)">can be adjusted by modifying the x-location of the margin guidelines.</text>
  <text style="stroke:none;fill:black;font-family:-apple-system,&quot;SF Pro Display&quot;,&quot;SF Pro Text&quot;,Helvetica,sans-serif;" transform="matrix(1 0 0 1 776 2007)">Modifications are automatically applied proportionally to all</text>
  <text style="stroke:none;fill:black;font-family:-apple-system,&quot;SF Pro Display&quot;,&quot;SF Pro Text&quot;,Helvetica,sans-serif;" transform="matrix(1 0 0 1 776 2025)">scales and weights.</text>
  <g id="" transform="matrix(1 0 0 1 1289 1933)">
   <path d="M2.8418 1.86523L4.54102 3.57422C5.40039 4.44336 6.38672 4.38477 7.31445 3.35938L17.4902-7.85156C17.7539-7.76367 18.0273-7.7832 18.3398-7.8418L19.4043-8.03711L20.0684-7.36328L20.0293-6.80664C19.9902-6.30859 20.1172-5.92773 20.6055-5.44922L21.3672-4.70703C21.8457-4.22852 22.4609-4.19922 22.9297-4.66797L25.8398-7.58789C26.3086-8.05664 26.2891-8.65234 25.8105-9.13086L25.0391-9.89258C24.5605-10.3711 24.1895-10.5273 23.7109-10.4883L23.1348-10.4395L22.4902-11.0742L22.7344-12.1973C22.8613-12.7637 22.7051-13.2031 22.1191-13.7891L19.9219-15.9766C16.582-19.2969 12.1484-19.2188 9.25781-16.3281C8.83789-15.918 8.80859-15.3418 9.04297-14.9512C9.27734-14.5898 9.73633-14.3555 10.3809-14.5215C11.8457-14.8633 13.3691-14.9219 14.7949-13.9844L14.209-12.5293C14.0137-12.0508 13.9844-11.6504 14.1113-11.2891L3.04688-0.898438C2.06055 0.0195312 1.98242 0.996094 2.8418 1.86523ZM10.752-15.957C13.1836-17.7344 16.4746-17.4316 18.7012-15.2051L21.1328-12.793C21.3672-12.5586 21.4062-12.373 21.3379-12.0312L21.0156-10.5469L22.5195-9.0625L23.5059-9.12109C23.7598-9.13086 23.8379-9.11133 24.0332-8.91602L24.6094-8.33984L22.168-5.89844L21.5918-6.47461C21.3965-6.66992 21.3672-6.74805 21.377-7.01172L21.4453-7.98828L19.9512-9.47266L18.4277-9.21875C18.1055-9.15039 17.959-9.17969 17.7148-9.41406L15.7129-11.416C15.459-11.6504 15.4297-11.8164 15.5859-12.1875L16.4648-14.2773C14.9023-15.7324 12.8711-16.3574 10.8398-15.7617C10.6836-15.7227 10.625-15.8496 10.752-15.957ZM5.27344 2.30469L4.10156 1.14258C3.63281 0.683594 3.74023 0.341797 4.14062-0.0195312L14.9512-10.1953L16.416-8.71094L6.42578 2.27539C6.07422 2.67578 5.74219 2.77344 5.27344 2.30469Z"/>
  </g>
  <text style="stroke:none;fill:black;font-family:-apple-system,&quot;SF Pro Display&quot;,&quot;SF Pro Text&quot;,Helvetica,sans-serif;font-weight:bold;" transform="matrix(1 0 0 1 1289 1953)">Exporting</text>
  <text style="stroke:none;fill:black;font-family:-apple-system,&quot;SF Pro Display&quot;,&quot;SF Pro Text&quot;,Helvetica,sans-serif;" transform="matrix(1 0 0 1 1289 1971)">Symbols should be outlined when exporting to ensure the</text>
  <text style="stroke:none;fill:black;font-family:-apple-system,&quot;SF Pro Display&quot;,&quot;SF Pro Text&quot;,Helvetica,sans-serif;" transform="matrix(1 0 0 1 1289 1989)">design is preserved when submitting to Xcode.</text>
  <text id="template-version" style="stroke:none;fill:black;font-family:-apple-system,&quot;SF Pro Display&quot;,&quot;SF Pro Text&quot;,Helvetica,sans-serif;text-anchor:end;" transform="matrix(1 0 0 1 3036 1933)">Template v.2.0</text>
  <text style="stroke:none;fill:black;font-family:-apple-system,&quot;SF Pro Display&quot;,&quot;SF Pro Text&quot;,Helvetica,sans-serif;text-anchor:end;" transform="matrix(1 0 0 1 3036 1951)">Requires Xcode 12 or greater</text>
  <text style="stroke:none;fill:black;font-family:-apple-system,&quot;SF Pro Display&quot;,&quot;SF Pro Text&quot;,Helvetica,sans-serif;" transform="matrix(1 0 0 1 263 726)">Small</text>
  <text style="stroke:none;fill:black;font-family:-apple-system,&quot;SF Pro Display&quot;,&quot;SF Pro Text&quot;,Helvetica,sans-serif;" transform="matrix(1 0 0 1 263 1156)">Medium</text>
  <text style="stroke:none;fill:black;font-family:-apple-system,&quot;SF Pro Display&quot;,&quot;SF Pro Text&quot;,Helvetica,sans-serif;" transform="matrix(1 0 0 1 263 1586)">Large</text>
 </g>
 <g id="Guides">
  <g id="H-reference" style="fill:#27AAE1;stroke:none;" transform="matrix(1 0 0 1 339 696)">
   <path d="M0.976562 0L3.66211 0L12.9883-24.4629L45.752-24.4629L55.127 0L57.7637 0L30.6152-70.459L28.125-70.459ZM29.3457-67.1387L29.4434-67.1387L44.873-26.709L13.8672-26.709Z"/>
  </g>
  <line id="Baseline-S" style="fill:none;stroke:#27AAE1;opacity:1;stroke-width:0.5;" x1="263" x2="3036" y1="696" y2="696"/>
  <line id="Capline-S" style="fill:none;stroke:#27AAE1;opacity:1;stroke-width:0.5;" x1="263" x2="3036" y1="625.541" y2="625.541"/>
  <g id="H-reference" style="fill:#27AAE1;stroke:none;" transform="matrix(1 0 0 1 339 1126)">
   <path d="M0.976562 0L3.66211 0L12.9883-24.4629L45.752-24.4629L55.127 0L57.7637 0L30.6152-70.459L28.125-70.459ZM29.3457-67.1387L29.4434-67.1387L44.873-26.709L13.8672-26.709Z"/>
  </g>
  <line id="Baseline-M" style="fill:none;stroke:#27AAE1;opacity:1;stroke-width:0.5;" x1="263" x2="3036" y1="1126" y2="1126"/>
  <line id="Capline-M" style="fill:none;stroke:#27AAE1;opacity:1;stroke-width:0.5;" x1="263" x2="3036" y1="1055.54" y2="1055.54"/>
  <g id="H-reference" style="fill:#27AAE1;stroke:none;" transform="matrix(1 0 0 1 339 1556)">
   <path d="M0.976562 0L3.66211 0L12.9883-24.4629L45.752-24.4629L55.127 0L57.7637 0L30.6152-70.459L28.125-70.459ZM29.3457-67.1387L29.4434-67.1387L44.873-26.709L13.8672-26.709Z"/>
  </g>
  <line id="Baseline-L" style="fill:none;stroke:#27AAE1;opacity:1;stroke-width:0.5;" x1="263" x2="3036" y1="1556" y2="1556"/>
  <line id="Capline-L" style="fill:none;stroke:#27AAE1;opacity:1;stroke-width:0.5;" x1="263" x2="3036" y1="1485.54" y2="1485.54"/>
  <line id="left-margin" x1="1417.8321939628083" x2="1417.8321939628083" y1="1030.79" y2="1150.12" style="fill:none;stroke:#00AEEF;stroke-width:0.5;opacity:1.0;"/>
  <line id="right-margin" x1="1484.4278060371914" x2="1484.4278060371914" y1="1030.79" y2="1150.12" style="fill:none;stroke:#00AEEF;stroke-width:0.5;opacity:1.0;"/>
 </g>
 <g id="Symbols">
  <g id="Black-L" transform="matrix(1.0,0.0,0.0,1.0,2893.1382497214922,1479.2282692527422)">  <path stroke-linejoin="miter" fill="#000000" stroke-miterlimit="4" x="0px" stroke="none" stroke-width="1px" fill-opacity="1" stroke-linecap="butt" stroke-opacity="1" fill-rule="nonzero" y="0px" version="1.1" xml:space="preserve" stroke-dasharray="none" xmlns:xlink="http://www.w3.org/1999/xlink" d="M83.084,41.191L78.468,46.799L41.542,16.43L4.616,46.799L0,41.191L41.542,7.026L83.084,41.191ZM41.553,23.429L68.341,45.645L68.341,66.416L68.341,72.779L68.341,76.057L14.732,76.057L14.732,72.693L14.732,66.416L14.732,45.559L41.553,23.429ZM43.742,46.875C43.556,47.011,41.542,48.816,41.542,48.816C41.542,48.816,39.525,47.004,39.342,46.875C36.615,44.952,33.68,44.826,31.437,46.001C29.226,47.069,27.9,49.42,27.738,52.127C27.727,52.224,27.727,52.321,27.727,52.418C27.695,54.478,28.503,56.387,29.668,58.08C30.186,58.835,30.736,59.546,31.307,60.237C32.149,61.304,41.536,70.133,41.536,70.133C41.536,70.133,50.935,61.293,51.776,60.237C52.348,59.546,52.898,58.824,53.415,58.08C54.58,56.376,55.389,54.478,55.357,52.418C55.357,52.321,55.357,52.224,55.346,52.127C55.184,49.42,53.857,47.058,51.647,46.001C49.404,44.826,46.432,44.902,43.742,46.875ZM43.742,46.875"/>
</g>
  <g id="Heavy-L" transform="matrix(1.0,0.0,0.0,1.0,2596.428249721492,1479.2282692527422)">  <path fill="#000000" y="0px" stroke="none" x="0px" fill-rule="nonzero" stroke-dasharray="none" stroke-linejoin="miter" stroke-opacity="1" xmlns:xlink="http://www.w3.org/1999/xlink" stroke-miterlimit="4" version="1.1" stroke-linecap="butt" fill-opacity="1" stroke-width="1px" xml:space="preserve" d="M83.084,41.191L78.468,46.799L41.542,16.43L4.616,46.799L0,41.191L41.542,7.026L83.084,41.191ZM41.553,23.429L68.341,45.645L68.341,66.416L68.341,72.779L68.341,76.057L14.732,76.057L14.732,72.693L14.732,66.416L14.732,45.559L41.553,23.429ZM43.742,46.875C43.556,47.011,41.542,48.816,41.542,48.816C41.542,48.816,39.525,47.004,39.342,46.875C36.615,44.952,33.68,44.826,31.437,46.001C29.226,47.069,27.9,49.42,27.738,52.127C27.727,52.224,27.727,52.321,27.727,52.418C27.695,54.478,28.503,56.387,29.668,58.08C30.186,58.835,30.736,59.546,31.307,60.237C32.149,61.304,41.536,70.133,41.536,70.133C41.536,70.133,50.935,61.293,51.776,60.237C52.348,59.546,52.898,58.824,53.415,58.08C54.58,56.376,55.389,54.478,55.357,52.418C55.357,52.321,55.357,52.224,55.346,52.127C55.184,49.42,53.857,47.058,51.647,46.001C49.404,44.826,46.432,44.902,43.742,46.875ZM43.742,46.875"/>
</g>
  <g id="Bold-L" transform="matrix(1.0,0.0,0.0,1.0,2299.718249721492,1479.2282692527422)">  <path xmlns:xlink="http://www.w3.org/1999/xlink" fill="#000000" fill-opacity="1" stroke-width="1px" xml:space="preserve" stroke-linejoin="miter" stroke-miterlimit="4" version="1.1" stroke-opacity="1" x="0px" stroke-dasharray="none" fill-rule="nonzero" stroke-linecap="butt" y="0px" stroke="none" d="M83.084,41.191L78.468,46.799L41.542,16.43L4.616,46.799L0,41.191L41.542,7.026L83.084,41.191ZM41.553,23.429L68.341,45.645L68.341,66.416L68.341,72.779L68.341,76.057L14.732,76.057L14.732,72.693L14.732,66.416L14.732,45.559L41.553,23.429ZM43.742,46.875C43.556,47.011,41.542,48.816,41.542,48.816C41.542,48.816,39.525,47.004,39.342,46.875C36.615,44.952,33.68,44.826,31.437,46.001C29.226,47.069,27.9,49.42,27.738,52.127C27.727,52.224,27.727,52.321,27.727,52.418C27.695,54.478,28.503,56.387,29.668,58.08C30.186,58.835,30.736,59.546,31.307,60.237C32.149,61.304,41.536,70.133,41.536,70.133C41.536,70.133,50.935,61.293,51.776,60.237C52.348,59.546,52.898,58.824,53.415,58.08C54.58,56.376,55.389,54.478,55.357,52.418C55.357,52.321,55.357,52.224,55.346,52.127C55.184,49.42,53.857,47.058,51.647,46.001C49.404,44.826,46.432,44.902,43.742,46.875ZM43.742,46.875"/>
</g>
  <g id="Semibold-L" transform="matrix(1.0,0.0,0.0,1.0,2003.0082497214921,1479.2282692527422)">  <path fill-rule="nonzero" xmlns:xlink="http://www.w3.org/1999/xlink" fill-opacity="1" stroke="none" stroke-opacity="1" fill="#000000" stroke-dasharray="none" version="1.1" stroke-width="1px" xml:space="preserve" x="0px" stroke-linecap="butt" stroke-miterlimit="4" stroke-linejoin="miter" y="0px" d="M83.084,41.191L78.468,46.799L41.542,16.43L4.616,46.799L0,41.191L41.542,7.026L83.084,41.191ZM41.553,23.429L68.341,45.645L68.341,66.416L68.341,72.779L68.341,76.057L14.732,76.057L14.732,72.693L14.732,66.416L14.732,45.559L41.553,23.429ZM43.742,46.875C43.556,47.011,41.542,48.816,41.542,48.816C41.542,48.816,39.525,47.004,39.342,46.875C36.615,44.952,33.68,44.826,31.437,46.001C29.226,47.069,27.9,49.42,27.738,52.127C27.727,52.224,27.727,52.321,27.727,52.418C27.695,54.478,28.503,56.387,29.668,58.08C30.186,58.835,30.736,59.546,31.307,60.237C32.149,61.304,41.536,70.133,41.536,70.133C41.536,70.133,50.935,61.293,51.776,60.237C52.348,59.546,52.898,58.824,53.415,58.08C54.58,56.376,55.389,54.478,55.357,52.418C55.357,52.321,55.357,52.224,55.346,52.127C55.184,49.42,53.857,47.058,51.647,46.001C49.404,44.826,46.432,44.902,43.742,46.875ZM43.742,46.875"/>
</g>
  <g id="Medium-L" transform="matrix(1.0,0.0,0.0,1.0,1706.298249721492,1479.2282692527422)">  <path stroke-dasharray="none" y="0px" version="1.1" xmlns:xlink="http://www.w3.org/1999/xlink" fill-opacity="1" fill-rule="nonzero" stroke-linejoin="miter" stroke-opacity="1" stroke-linecap="butt" stroke-width="1px" stroke="none" fill="#000000" xml:space="preserve" stroke-miterlimit="4" x="0px" d="M83.084,41.191L78.468,46.799L41.542,16.43L4.616,46.799L0,41.191L41.542,7.026L83.084,41.191ZM41.553,23.429L68.341,45.645L68.341,66.416L68.341,72.779L68.341,76.057L14.732,76.057L14.732,72.693L14.732,66.416L14.732,45.559L41.553,23.429ZM43.742,46.875C43.556,47.011,41.542,48.816,41.542,48.816C41.542,48.816,39.525,47.004,39.342,46.875C36.615,44.952,33.68,44.826,31.437,46.001C29.226,47.069,27.9,49.42,27.738,52.127C27.727,52.224,27.727,52.321,27.727,52.418C27.695,54.478,28.503,56.387,29.668,58.08C30.186,58.835,30.736,59.546,31.307,60.237C32.149,61.304,41.536,70.133,41.536,70.133C41.536,70.133,50.935,61.293,51.776,60.237C52.348,59.546,52.898,58.824,53.415,58.08C54.58,56.376,55.389,54.478,55.357,52.418C55.357,52.321,55.357,52.224,55.346,52.127C55.184,49.42,53.857,47.058,51.647,46.001C49.404,44.826,46.432,44.902,43.742,46.875ZM43.742,46.875"/>
</g>
  <g id="Regular-L" transform="matrix(1.0,0.0,0.0,1.0,1409.588249721492,1479.2282692527422)">  <path fill-rule="nonzero" stroke-opacity="1" version="1.1" xmlns:xlink="http://www.w3.org/1999/xlink" stroke-dasharray="none" stroke="none" fill-opacity="1" stroke-linecap="butt" x="0px" y="0px" fill="#000000" stroke-width="1px" stroke-linejoin="miter" stroke-miterlimit="4" xml:space="preserve" d="M83.084,41.191L78.468,46.799L41.542,16.43L4.616,46.799L0,41.191L41.542,7.026L83.084,41.191ZM41.553,23.429L68.341,45.645L68.341,66.416L68.341,72.779L68.341,76.057L14.732,76.057L14.732,72.693L14.732,66.416L14.732,45.559L41.553,23.429ZM43.742,46.875C43.556,47.011,41.542,48.816,41.542,48.816C41.542,48.816,39.525,47.004,39.342,46.875C36.615,44.952,33.68,44.826,31.437,46.001C29.226,47.069,27.9,49.42,27.738,52.127C27.727,52.224,27.727,52.321,27.727,52.418C27.695,54.478,28.503,56.387,29.668,58.08C30.186,58.835,30.736,59.546,31.307,60.237C32.149,61.304,41.536,70.133,41.536,70.133C41.536,70.133,50.935,61.293,51.776,60.237C52.348,59.546,52.898,58.824,53.415,58.08C54.58,56.376,55.389,54.478,55.357,52.418C55.357,52.321,55.357,52.224,55.346,52.127C55.184,49.42,53.857,47.058,51.647,46.001C49.404,44.826,46.432,44.902,43.742,46.875ZM43.742,46.875"/>
</g>
  <g id="Light-L" transform="matrix(1.0,0.0,0.0,1.0,1112.8782497214922,1479.2282692527422)">  <path stroke-dasharray="none" stroke-opacity="1" fill-opacity="1" xmlns:xlink="http://www.w3.org/1999/xlink" y="0px" stroke-miterlimit="4" version="1.1" stroke-width="1px" xml:space="preserve" stroke="none" fill-rule="nonzero" stroke-linejoin="miter" x="0px" fill="#000000" stroke-linecap="butt" d="M83.084,41.191L78.468,46.799L41.542,16.43L4.616,46.799L0,41.191L41.542,7.026L83.084,41.191ZM41.553,23.429L68.341,45.645L68.341,66.416L68.341,72.779L68.341,76.057L14.732,76.057L14.732,72.693L14.732,66.416L14.732,45.559L41.553,23.429ZM43.742,46.875C43.556,47.011,41.542,48.816,41.542,48.816C41.542,48.816,39.525,47.004,39.342,46.875C36.615,44.952,33.68,44.826,31.437,46.001C29.226,47.069,27.9,49.42,27.738,52.127C27.727,52.224,27.727,52.321,27.727,52.418C27.695,54.478,28.503,56.387,29.668,58.08C30.186,58.835,30.736,59.546,31.307,60.237C32.149,61.304,41.536,70.133,41.536,70.133C41.536,70.133,50.935,61.293,51.776,60.237C52.348,59.546,52.898,58.824,53.415,58.08C54.58,56.376,55.389,54.478,55.357,52.418C55.357,52.321,55.357,52.224,55.346,52.127C55.184,49.42,53.857,47.058,51.647,46.001C49.404,44.826,46.432,44.902,43.742,46.875ZM43.742,46.875"/>
</g>
  <g id="Thin-L" transform="matrix(1.0,0.0,0.0,1.0,816.1682497214923,1479.2282692527422)">  <path stroke-dasharray="none" stroke-width="1px" stroke-linecap="butt" x="0px" version="1.1" xmlns:xlink="http://www.w3.org/1999/xlink" stroke="none" stroke-miterlimit="4" xml:space="preserve" fill="#000000" y="0px" stroke-linejoin="miter" stroke-opacity="1" fill-rule="nonzero" fill-opacity="1" d="M83.084,41.191L78.468,46.799L41.542,16.43L4.616,46.799L0,41.191L41.542,7.026L83.084,41.191ZM41.553,23.429L68.341,45.645L68.341,66.416L68.341,72.779L68.341,76.057L14.732,76.057L14.732,72.693L14.732,66.416L14.732,45.559L41.553,23.429ZM43.742,46.875C43.556,47.011,41.542,48.816,41.542,48.816C41.542,48.816,39.525,47.004,39.342,46.875C36.615,44.952,33.68,44.826,31.437,46.001C29.226,47.069,27.9,49.42,27.738,52.127C27.727,52.224,27.727,52.321,27.727,52.418C27.695,54.478,28.503,56.387,29.668,58.08C30.186,58.835,30.736,59.546,31.307,60.237C32.149,61.304,41.536,70.133,41.536,70.133C41.536,70.133,50.935,61.293,51.776,60.237C52.348,59.546,52.898,58.824,53.415,58.08C54.58,56.376,55.389,54.478,55.357,52.418C55.357,52.321,55.357,52.224,55.346,52.127C55.184,49.42,53.857,47.058,51.647,46.001C49.404,44.826,46.432,44.902,43.742,46.875ZM43.742,46.875"/>
</g>
  <g id="Ultralight-L" transform="matrix(1.0,0.0,0.0,1.0,519.4582497214923,1479.2282692527422)">  <path xml:space="preserve" x="0px" xmlns:xlink="http://www.w3.org/1999/xlink" fill-opacity="1" version="1.1" stroke-dasharray="none" stroke-opacity="1" fill="#000000" stroke-linejoin="miter" stroke-miterlimit="4" stroke-linecap="butt" fill-rule="nonzero" stroke="none" y="0px" stroke-width="1px" d="M83.084,41.191L78.468,46.799L41.542,16.43L4.616,46.799L0,41.191L41.542,7.026L83.084,41.191ZM41.553,23.429L68.341,45.645L68.341,66.416L68.341,72.779L68.341,76.057L14.732,76.057L14.732,72.693L14.732,66.416L14.732,45.559L41.553,23.429ZM43.742,46.875C43.556,47.011,41.542,48.816,41.542,48.816C41.542,48.816,39.525,47.004,39.342,46.875C36.615,44.952,33.68,44.826,31.437,46.001C29.226,47.069,27.9,49.42,27.738,52.127C27.727,52.224,27.727,52.321,27.727,52.418C27.695,54.478,28.503,56.387,29.668,58.08C30.186,58.835,30.736,59.546,31.307,60.237C32.149,61.304,41.536,70.133,41.536,70.133C41.536,70.133,50.935,61.293,51.776,60.237C52.348,59.546,52.898,58.824,53.415,58.08C54.58,56.376,55.389,54.478,55.357,52.418C55.357,52.321,55.357,52.224,55.346,52.127C55.184,49.42,53.857,47.058,51.647,46.001C49.404,44.826,46.432,44.902,43.742,46.875ZM43.742,46.875"/>
</g>
  <g id="Black-M" transform="matrix(1.0,0.0,0.0,1.0,2902.477092807358,1058.5671123386082)">  <path stroke-linejoin="miter" fill="#000000" stroke-miterlimit="4" x="0px" stroke="none" stroke-width="1px" fill-opacity="1" stroke-linecap="butt" stroke-opacity="1" fill-rule="nonzero" y="0px" version="1.1" xml:space="preserve" stroke-dasharray="none" xmlns:xlink="http://www.w3.org/1999/xlink" d="M64.406,31.931L60.828,36.278L32.203,12.737L3.578,36.278L0,31.931L32.203,5.447L64.406,31.931ZM32.211,18.162L52.978,35.384L52.978,51.485L52.978,56.418L52.978,58.959L11.42,58.959L11.42,56.351L11.42,51.485L11.42,35.317L32.211,18.162ZM33.908,36.337C33.764,36.443,32.203,37.842,32.203,37.842C32.203,37.842,30.64,36.437,30.498,36.337C28.384,34.847,26.109,34.749,24.37,35.66C22.656,36.487,21.628,38.31,21.502,40.408C21.494,40.483,21.494,40.559,21.494,40.634C21.469,42.231,22.096,43.711,22.999,45.023C23.4,45.608,23.826,46.16,24.269,46.695C24.921,47.523,32.199,54.367,32.199,54.367C32.199,54.367,39.485,47.514,40.137,46.695C40.58,46.16,41.006,45.6,41.407,45.023C42.31,43.702,42.937,42.231,42.912,40.634C42.912,40.559,42.912,40.483,42.904,40.408C42.778,38.31,41.75,36.479,40.036,35.66C38.297,34.749,35.994,34.807,33.908,36.337ZM33.908,36.337"/>
</g>
  <g id="Heavy-M" transform="matrix(1.0,0.0,0.0,1.0,2605.767092807358,1058.5671123386082)">  <path fill="#000000" y="0px" stroke="none" x="0px" fill-rule="nonzero" stroke-dasharray="none" stroke-linejoin="miter" stroke-opacity="1" xmlns:xlink="http://www.w3.org/1999/xlink" stroke-miterlimit="4" version="1.1" stroke-linecap="butt" fill-opacity="1" stroke-width="1px" xml:space="preserve" d="M64.406,31.931L60.828,36.278L32.203,12.737L3.578,36.278L0,31.931L32.203,5.447L64.406,31.931ZM32.211,18.162L52.978,35.384L52.978,51.485L52.978,56.418L52.978,58.959L11.42,58.959L11.42,56.351L11.42,51.485L11.42,35.317L32.211,18.162ZM33.908,36.337C33.764,36.443,32.203,37.842,32.203,37.842C32.203,37.842,30.64,36.437,30.498,36.337C28.384,34.847,26.109,34.749,24.37,35.66C22.656,36.487,21.628,38.31,21.502,40.408C21.494,40.483,21.494,40.559,21.494,40.634C21.469,42.231,22.096,43.711,22.999,45.023C23.4,45.608,23.826,46.16,24.269,46.695C24.921,47.523,32.199,54.367,32.199,54.367C32.199,54.367,39.485,47.514,40.137,46.695C40.58,46.16,41.006,45.6,41.407,45.023C42.31,43.702,42.937,42.231,42.912,40.634C42.912,40.559,42.912,40.483,42.904,40.408C42.778,38.31,41.75,36.479,40.036,35.66C38.297,34.749,35.994,34.807,33.908,36.337ZM33.908,36.337"/>
</g>
  <g id="Bold-M" transform="matrix(1.0,0.0,0.0,1.0,2309.057092807358,1058.5671123386082)">  <path xmlns:xlink="http://www.w3.org/1999/xlink" fill="#000000" fill-opacity="1" stroke-width="1px" xml:space="preserve" stroke-linejoin="miter" stroke-miterlimit="4" version="1.1" stroke-opacity="1" x="0px" stroke-dasharray="none" fill-rule="nonzero" stroke-linecap="butt" y="0px" stroke="none" d="M64.406,31.931L60.828,36.278L32.203,12.737L3.578,36.278L0,31.931L32.203,5.447L64.406,31.931ZM32.211,18.162L52.978,35.384L52.978,51.485L52.978,56.418L52.978,58.959L11.42,58.959L11.42,56.351L11.42,51.485L11.42,35.317L32.211,18.162ZM33.908,36.337C33.764,36.443,32.203,37.842,32.203,37.842C32.203,37.842,30.64,36.437,30.498,36.337C28.384,34.847,26.109,34.749,24.37,35.66C22.656,36.487,21.628,38.31,21.502,40.408C21.494,40.483,21.494,40.559,21.494,40.634C21.469,42.231,22.096,43.711,22.999,45.023C23.4,45.608,23.826,46.16,24.269,46.695C24.921,47.523,32.199,54.367,32.199,54.367C32.199,54.367,39.485,47.514,40.137,46.695C40.58,46.16,41.006,45.6,41.407,45.023C42.31,43.702,42.937,42.231,42.912,40.634C42.912,40.559,42.912,40.483,42.904,40.408C42.778,38.31,41.75,36.479,40.036,35.66C38.297,34.749,35.994,34.807,33.908,36.337ZM33.908,36.337"/>
</g>
  <g id="Semibold-M" transform="matrix(1.0,0.0,0.0,1.0,2012.3470928073582,1058.5671123386082)">  <path fill-rule="nonzero" xmlns:xlink="http://www.w3.org/1999/xlink" fill-opacity="1" stroke="none" stroke-opacity="1" fill="#000000" stroke-dasharray="none" version="1.1" stroke-width="1px" xml:space="preserve" x="0px" stroke-linecap="butt" stroke-miterlimit="4" stroke-linejoin="miter" y="0px" d="M64.406,31.931L60.828,36.278L32.203,12.737L3.578,36.278L0,31.931L32.203,5.447L64.406,31.931ZM32.211,18.162L52.978,35.384L52.978,51.485L52.978,56.418L52.978,58.959L11.42,58.959L11.42,56.351L11.42,51.485L11.42,35.317L32.211,18.162ZM33.908,36.337C33.764,36.443,32.203,37.842,32.203,37.842C32.203,37.842,30.64,36.437,30.498,36.337C28.384,34.847,26.109,34.749,24.37,35.66C22.656,36.487,21.628,38.31,21.502,40.408C21.494,40.483,21.494,40.559,21.494,40.634C21.469,42.231,22.096,43.711,22.999,45.023C23.4,45.608,23.826,46.16,24.269,46.695C24.921,47.523,32.199,54.367,32.199,54.367C32.199,54.367,39.485,47.514,40.137,46.695C40.58,46.16,41.006,45.6,41.407,45.023C42.31,43.702,42.937,42.231,42.912,40.634C42.912,40.559,42.912,40.483,42.904,40.408C42.778,38.31,41.75,36.479,40.036,35.66C38.297,34.749,35.994,34.807,33.908,36.337ZM33.908,36.337"/>
</g>
  <g id="Medium-M" transform="matrix(1.0,0.0,0.0,1.0,1715.6370928073582,1058.5671123386082)">  <path stroke-dasharray="none" y="0px" version="1.1" xmlns:xlink="http://www.w3.org/1999/xlink" fill-opacity="1" fill-rule="nonzero" stroke-linejoin="miter" stroke-opacity="1" stroke-linecap="butt" stroke-width="1px" stroke="none" fill="#000000" xml:space="preserve" stroke-miterlimit="4" x="0px" d="M64.406,31.931L60.828,36.278L32.203,12.737L3.578,36.278L0,31.931L32.203,5.447L64.406,31.931ZM32.211,18.162L52.978,35.384L52.978,51.485L52.978,56.418L52.978,58.959L11.42,58.959L11.42,56.351L11.42,51.485L11.42,35.317L32.211,18.162ZM33.908,36.337C33.764,36.443,32.203,37.842,32.203,37.842C32.203,37.842,30.64,36.437,30.498,36.337C28.384,34.847,26.109,34.749,24.37,35.66C22.656,36.487,21.628,38.31,21.502,40.408C21.494,40.483,21.494,40.559,21.494,40.634C21.469,42.231,22.096,43.711,22.999,45.023C23.4,45.608,23.826,46.16,24.269,46.695C24.921,47.523,32.199,54.367,32.199,54.367C32.199,54.367,39.485,47.514,40.137,46.695C40.58,46.16,41.006,45.6,41.407,45.023C42.31,43.702,42.937,42.231,42.912,40.634C42.912,40.559,42.912,40.483,42.904,40.408C42.778,38.31,41.75,36.479,40.036,35.66C38.297,34.749,35.994,34.807,33.908,36.337ZM33.908,36.337"/>
</g>
  <g id="Regular-M" transform="matrix(1.0,0.0,0.0,1.0,1418.9270928073581,1058.5671123386082)">  <path fill-rule="nonzero" stroke-opacity="1" version="1.1" xmlns:xlink="http://www.w3.org/1999/xlink" stroke-dasharray="none" stroke="none" fill-opacity="1" stroke-linecap="butt" x="0px" y="0px" fill="#000000" stroke-width="1px" stroke-linejoin="miter" stroke-miterlimit="4" xml:space="preserve" d="M64.406,31.931L60.828,36.278L32.203,12.737L3.578,36.278L0,31.931L32.203,5.447L64.406,31.931ZM32.211,18.162L52.978,35.384L52.978,51.485L52.978,56.418L52.978,58.959L11.42,58.959L11.42,56.351L11.42,51.485L11.42,35.317L32.211,18.162ZM33.908,36.337C33.764,36.443,32.203,37.842,32.203,37.842C32.203,37.842,30.64,36.437,30.498,36.337C28.384,34.847,26.109,34.749,24.37,35.66C22.656,36.487,21.628,38.31,21.502,40.408C21.494,40.483,21.494,40.559,21.494,40.634C21.469,42.231,22.096,43.711,22.999,45.023C23.4,45.608,23.826,46.16,24.269,46.695C24.921,47.523,32.199,54.367,32.199,54.367C32.199,54.367,39.485,47.514,40.137,46.695C40.58,46.16,41.006,45.6,41.407,45.023C42.31,43.702,42.937,42.231,42.912,40.634C42.912,40.559,42.912,40.483,42.904,40.408C42.778,38.31,41.75,36.479,40.036,35.66C38.297,34.749,35.994,34.807,33.908,36.337ZM33.908,36.337"/>
</g>
  <g id="Light-M" transform="matrix(1.0,0.0,0.0,1.0,1122.2170928073583,1058.5671123386082)">  <path stroke-dasharray="none" stroke-opacity="1" fill-opacity="1" xmlns:xlink="http://www.w3.org/1999/xlink" y="0px" stroke-miterlimit="4" version="1.1" stroke-width="1px" xml:space="preserve" stroke="none" fill-rule="nonzero" stroke-linejoin="miter" x="0px" fill="#000000" stroke-linecap="butt" d="M64.406,31.931L60.828,36.278L32.203,12.737L3.578,36.278L0,31.931L32.203,5.447L64.406,31.931ZM32.211,18.162L52.978,35.384L52.978,51.485L52.978,56.418L52.978,58.959L11.42,58.959L11.42,56.351L11.42,51.485L11.42,35.317L32.211,18.162ZM33.908,36.337C33.764,36.443,32.203,37.842,32.203,37.842C32.203,37.842,30.64,36.437,30.498,36.337C28.384,34.847,26.109,34.749,24.37,35.66C22.656,36.487,21.628,38.31,21.502,40.408C21.494,40.483,21.494,40.559,21.494,40.634C21.469,42.231,22.096,43.711,22.999,45.023C23.4,45.608,23.826,46.16,24.269,46.695C24.921,47.523,32.199,54.367,32.199,54.367C32.199,54.367,39.485,47.514,40.137,46.695C40.58,46.16,41.006,45.6,41.407,45.023C42.31,43.702,42.937,42.231,42.912,40.634C42.912,40.559,42.912,40.483,42.904,40.408C42.778,38.31,41.75,36.479,40.036,35.66C38.297,34.749,35.994,34.807,33.908,36.337ZM33.908,36.337"/>
</g>
  <g id="Thin-M" transform="matrix(1.0,0.0,0.0,1.0,825.5070928073584,1058.5671123386082)">  <path stroke-dasharray="none" stroke-width="1px" stroke-linecap="butt" x="0px" version="1.1" xmlns:xlink="http://www.w3.org/1999/xlink" stroke="none" stroke-miterlimit="4" xml:space="preserve" fill="#000000" y="0px" stroke-linejoin="miter" stroke-opacity="1" fill-rule="nonzero" fill-opacity="1" d="M64.406,31.931L60.828,36.278L32.203,12.737L3.578,36.278L0,31.931L32.203,5.447L64.406,31.931ZM32.211,18.162L52.978,35.384L52.978,51.485L52.978,56.418L52.978,58.959L11.42,58.959L11.42,56.351L11.42,51.485L11.42,35.317L32.211,18.162ZM33.908,36.337C33.764,36.443,32.203,37.842,32.203,37.842C32.203,37.842,30.64,36.437,30.498,36.337C28.384,34.847,26.109,34.749,24.37,35.66C22.656,36.487,21.628,38.31,21.502,40.408C21.494,40.483,21.494,40.559,21.494,40.634C21.469,42.231,22.096,43.711,22.999,45.023C23.4,45.608,23.826,46.16,24.269,46.695C24.921,47.523,32.199,54.367,32.199,54.367C32.199,54.367,39.485,47.514,40.137,46.695C40.58,46.16,41.006,45.6,41.407,45.023C42.31,43.702,42.937,42.231,42.912,40.634C42.912,40.559,42.912,40.483,42.904,40.408C42.778,38.31,41.75,36.479,40.036,35.66C38.297,34.749,35.994,34.807,33.908,36.337ZM33.908,36.337"/>
</g>
  <g id="Ultralight-M" transform="matrix(1.0,0.0,0.0,1.0,528.7970928073584,1058.5671123386082)">  <path xml:space="preserve" x="0px" xmlns:xlink="http://www.w3.org/1999/xlink" fill-opacity="1" version="1.1" stroke-dasharray="none" stroke-opacity="1" fill="#000000" stroke-linejoin="miter" stroke-miterlimit="4" stroke-linecap="butt" fill-rule="nonzero" stroke="none" y="0px" stroke-width="1px" d="M64.406,31.931L60.828,36.278L32.203,12.737L3.578,36.278L0,31.931L32.203,5.447L64.406,31.931ZM32.211,18.162L52.978,35.384L52.978,51.485L52.978,56.418L52.978,58.959L11.42,58.959L11.42,56.351L11.42,51.485L11.42,35.317L32.211,18.162ZM33.908,36.337C33.764,36.443,32.203,37.842,32.203,37.842C32.203,37.842,30.64,36.437,30.498,36.337C28.384,34.847,26.109,34.749,24.37,35.66C22.656,36.487,21.628,38.31,21.502,40.408C21.494,40.483,21.494,40.559,21.494,40.634C21.469,42.231,22.096,43.711,22.999,45.023C23.4,45.608,23.826,46.16,24.269,46.695C24.921,47.523,32.199,54.367,32.199,54.367C32.199,54.367,39.485,47.514,40.137,46.695C40.58,46.16,41.006,45.6,41.407,45.023C42.31,43.702,42.937,42.231,42.912,40.634C42.912,40.559,42.912,40.483,42.904,40.408C42.778,38.31,41.75,36.479,40.036,35.66C38.297,34.749,35.994,34.807,33.908,36.337ZM33.908,36.337"/>
</g>
  <g id="Black-S" transform="matrix(1.0,0.0,0.0,1.0,2909.4651236681616,635.5551431994115)">  <path stroke-linejoin="miter" fill="#000000" stroke-miterlimit="4" x="0px" stroke="none" stroke-width="1px" fill-opacity="1" stroke-linecap="butt" stroke-opacity="1" fill-rule="nonzero" y="0px" version="1.1" xml:space="preserve" stroke-dasharray="none" xmlns:xlink="http://www.w3.org/1999/xlink" d="M50.43,25.002L47.628,28.406L25.215,9.973L2.802,28.406L0,25.002L25.215,4.265L50.43,25.002ZM25.221,14.221L41.481,27.706L41.481,40.313L41.481,44.175L41.481,46.165L8.942,46.165L8.942,44.123L8.942,40.313L8.942,27.653L25.221,14.221ZM26.55,28.452C26.437,28.535,25.215,29.63,25.215,29.63C25.215,29.63,23.991,28.53,23.88,28.452C22.225,27.285,20.443,27.208,19.081,27.922C17.74,28.57,16.934,29.997,16.836,31.64C16.83,31.698,16.83,31.758,16.83,31.816C16.81,33.067,17.301,34.225,18.008,35.253C18.322,35.711,18.656,36.143,19.003,36.562C19.513,37.21,25.212,42.569,25.212,42.569C25.212,42.569,30.916,37.204,31.427,36.562C31.774,36.143,32.108,35.705,32.422,35.253C33.129,34.219,33.62,33.067,33.6,31.816C33.6,31.758,33.6,31.698,33.594,31.64C33.495,29.997,32.69,28.563,31.348,27.922C29.987,27.208,28.183,27.254,26.55,28.452ZM26.55,28.452"/>
</g>
  <g id="Heavy-S" transform="matrix(1.0,0.0,0.0,1.0,2612.7551236681616,635.5551431994115)">  <path fill="#000000" y="0px" stroke="none" x="0px" fill-rule="nonzero" stroke-dasharray="none" stroke-linejoin="miter" stroke-opacity="1" xmlns:xlink="http://www.w3.org/1999/xlink" stroke-miterlimit="4" version="1.1" stroke-linecap="butt" fill-opacity="1" stroke-width="1px" xml:space="preserve" d="M50.43,25.002L47.628,28.406L25.215,9.973L2.802,28.406L0,25.002L25.215,4.265L50.43,25.002ZM25.221,14.221L41.481,27.706L41.481,40.313L41.481,44.175L41.481,46.165L8.942,46.165L8.942,44.123L8.942,40.313L8.942,27.653L25.221,14.221ZM26.55,28.452C26.437,28.535,25.215,29.63,25.215,29.63C25.215,29.63,23.991,28.53,23.88,28.452C22.225,27.285,20.443,27.208,19.081,27.922C17.74,28.57,16.934,29.997,16.836,31.64C16.83,31.698,16.83,31.758,16.83,31.816C16.81,33.067,17.301,34.225,18.008,35.253C18.322,35.711,18.656,36.143,19.003,36.562C19.513,37.21,25.212,42.569,25.212,42.569C25.212,42.569,30.916,37.204,31.427,36.562C31.774,36.143,32.108,35.705,32.422,35.253C33.129,34.219,33.62,33.067,33.6,31.816C33.6,31.758,33.6,31.698,33.594,31.64C33.495,29.997,32.69,28.563,31.348,27.922C29.987,27.208,28.183,27.254,26.55,28.452ZM26.55,28.452"/>
</g>
  <g id="Bold-S" transform="matrix(1.0,0.0,0.0,1.0,2316.0451236681615,635.5551431994115)">  <path xmlns:xlink="http://www.w3.org/1999/xlink" fill="#000000" fill-opacity="1" stroke-width="1px" xml:space="preserve" stroke-linejoin="miter" stroke-miterlimit="4" version="1.1" stroke-opacity="1" x="0px" stroke-dasharray="none" fill-rule="nonzero" stroke-linecap="butt" y="0px" stroke="none" d="M50.43,25.002L47.628,28.406L25.215,9.973L2.802,28.406L0,25.002L25.215,4.265L50.43,25.002ZM25.221,14.221L41.481,27.706L41.481,40.313L41.481,44.175L41.481,46.165L8.942,46.165L8.942,44.123L8.942,40.313L8.942,27.653L25.221,14.221ZM26.55,28.452C26.437,28.535,25.215,29.63,25.215,29.63C25.215,29.63,23.991,28.53,23.88,28.452C22.225,27.285,20.443,27.208,19.081,27.922C17.74,28.57,16.934,29.997,16.836,31.64C16.83,31.698,16.83,31.758,16.83,31.816C16.81,33.067,17.301,34.225,18.008,35.253C18.322,35.711,18.656,36.143,19.003,36.562C19.513,37.21,25.212,42.569,25.212,42.569C25.212,42.569,30.916,37.204,31.427,36.562C31.774,36.143,32.108,35.705,32.422,35.253C33.129,34.219,33.62,33.067,33.6,31.816C33.6,31.758,33.6,31.698,33.594,31.64C33.495,29.997,32.69,28.563,31.348,27.922C29.987,27.208,28.183,27.254,26.55,28.452ZM26.55,28.452"/>
</g>
  <g id="Semibold-S" transform="matrix(1.0,0.0,0.0,1.0,2019.3351236681615,635.5551431994115)">  <path fill-rule="nonzero" xmlns:xlink="http://www.w3.org/1999/xlink" fill-opacity="1" stroke="none" stroke-opacity="1" fill="#000000" stroke-dasharray="none" version="1.1" stroke-width="1px" xml:space="preserve" x="0px" stroke-linecap="butt" stroke-miterlimit="4" stroke-linejoin="miter" y="0px" d="M50.43,25.002L47.628,28.406L25.215,9.973L2.802,28.406L0,25.002L25.215,4.265L50.43,25.002ZM25.221,14.221L41.481,27.706L41.481,40.313L41.481,44.175L41.481,46.165L8.942,46.165L8.942,44.123L8.942,40.313L8.942,27.653L25.221,14.221ZM26.55,28.452C26.437,28.535,25.215,29.63,25.215,29.63C25.215,29.63,23.991,28.53,23.88,28.452C22.225,27.285,20.443,27.208,19.081,27.922C17.74,28.57,16.934,29.997,16.836,31.64C16.83,31.698,16.83,31.758,16.83,31.816C16.81,33.067,17.301,34.225,18.008,35.253C18.322,35.711,18.656,36.143,19.003,36.562C19.513,37.21,25.212,42.569,25.212,42.569C25.212,42.569,30.916,37.204,31.427,36.562C31.774,36.143,32.108,35.705,32.422,35.253C33.129,34.219,33.62,33.067,33.6,31.816C33.6,31.758,33.6,31.698,33.594,31.64C33.495,29.997,32.69,28.563,31.348,27.922C29.987,27.208,28.183,27.254,26.55,28.452ZM26.55,28.452"/>
</g>
  <g id="Medium-S" transform="matrix(1.0,0.0,0.0,1.0,1722.6251236681615,635.5551431994115)">  <path stroke-dasharray="none" y="0px" version="1.1" xmlns:xlink="http://www.w3.org/1999/xlink" fill-opacity="1" fill-rule="nonzero" stroke-linejoin="miter" stroke-opacity="1" stroke-linecap="butt" stroke-width="1px" stroke="none" fill="#000000" xml:space="preserve" stroke-miterlimit="4" x="0px" d="M50.43,25.002L47.628,28.406L25.215,9.973L2.802,28.406L0,25.002L25.215,4.265L50.43,25.002ZM25.221,14.221L41.481,27.706L41.481,40.313L41.481,44.175L41.481,46.165L8.942,46.165L8.942,44.123L8.942,40.313L8.942,27.653L25.221,14.221ZM26.55,28.452C26.437,28.535,25.215,29.63,25.215,29.63C25.215,29.63,23.991,28.53,23.88,28.452C22.225,27.285,20.443,27.208,19.081,27.922C17.74,28.57,16.934,29.997,16.836,31.64C16.83,31.698,16.83,31.758,16.83,31.816C16.81,33.067,17.301,34.225,18.008,35.253C18.322,35.711,18.656,36.143,19.003,36.562C19.513,37.21,25.212,42.569,25.212,42.569C25.212,42.569,30.916,37.204,31.427,36.562C31.774,36.143,32.108,35.705,32.422,35.253C33.129,34.219,33.62,33.067,33.6,31.816C33.6,31.758,33.6,31.698,33.594,31.64C33.495,29.997,32.69,28.563,31.348,27.922C29.987,27.208,28.183,27.254,26.55,28.452ZM26.55,28.452"/>
</g>
  <g id="Regular-S" transform="matrix(1.0,0.0,0.0,1.0,1425.9151236681614,635.5551431994115)">  <path fill-rule="nonzero" stroke-opacity="1" version="1.1" xmlns:xlink="http://www.w3.org/1999/xlink" stroke-dasharray="none" stroke="none" fill-opacity="1" stroke-linecap="butt" x="0px" y="0px" fill="#000000" stroke-width="1px" stroke-linejoin="miter" stroke-miterlimit="4" xml:space="preserve" d="M50.43,25.002L47.628,28.406L25.215,9.973L2.802,28.406L0,25.002L25.215,4.265L50.43,25.002ZM25.221,14.221L41.481,27.706L41.481,40.313L41.481,44.175L41.481,46.165L8.942,46.165L8.942,44.123L8.942,40.313L8.942,27.653L25.221,14.221ZM26.55,28.452C26.437,28.535,25.215,29.63,25.215,29.63C25.215,29.63,23.991,28.53,23.88,28.452C22.225,27.285,20.443,27.208,19.081,27.922C17.74,28.57,16.934,29.997,16.836,31.64C16.83,31.698,16.83,31.758,16.83,31.816C16.81,33.067,17.301,34.225,18.008,35.253C18.322,35.711,18.656,36.143,19.003,36.562C19.513,37.21,25.212,42.569,25.212,42.569C25.212,42.569,30.916,37.204,31.427,36.562C31.774,36.143,32.108,35.705,32.422,35.253C33.129,34.219,33.62,33.067,33.6,31.816C33.6,31.758,33.6,31.698,33.594,31.64C33.495,29.997,32.69,28.563,31.348,27.922C29.987,27.208,28.183,27.254,26.55,28.452ZM26.55,28.452"/>
</g>
  <g id="Light-S" transform="matrix(1.0,0.0,0.0,1.0,1129.2051236681616,635.5551431994115)">  <path stroke-dasharray="none" stroke-opacity="1" fill-opacity="1" xmlns:xlink="http://www.w3.org/1999/xlink" y="0px" stroke-miterlimit="4" version="1.1" stroke-width="1px" xml:space="preserve" stroke="none" fill-rule="nonzero" stroke-linejoin="miter" x="0px" fill="#000000" stroke-linecap="butt" d="M50.43,25.002L47.628,28.406L25.215,9.973L2.802,28.406L0,25.002L25.215,4.265L50.43,25.002ZM25.221,14.221L41.481,27.706L41.481,40.313L41.481,44.175L41.481,46.165L8.942,46.165L8.942,44.123L8.942,40.313L8.942,27.653L25.221,14.221ZM26.55,28.452C26.437,28.535,25.215,29.63,25.215,29.63C25.215,29.63,23.991,28.53,23.88,28.452C22.225,27.285,20.443,27.208,19.081,27.922C17.74,28.57,16.934,29.997,16.836,31.64C16.83,31.698,16.83,31.758,16.83,31.816C16.81,33.067,17.301,34.225,18.008,35.253C18.322,35.711,18.656,36.143,19.003,36.562C19.513,37.21,25.212,42.569,25.212,42.569C25.212,42.569,30.916,37.204,31.427,36.562C31.774,36.143,32.108,35.705,32.422,35.253C33.129,34.219,33.62,33.067,33.6,31.816C33.6,31.758,33.6,31.698,33.594,31.64C33.495,29.997,32.69,28.563,31.348,27.922C29.987,27.208,28.183,27.254,26.55,28.452ZM26.55,28.452"/>
</g>
  <g id="Thin-S" transform="matrix(1.0,0.0,0.0,1.0,832.4951236681616,635.5551431994115)">  <path stroke-dasharray="none" stroke-width="1px" stroke-linecap="butt" x="0px" version="1.1" xmlns:xlink="http://www.w3.org/1999/xlink" stroke="none" stroke-miterlimit="4" xml:space="preserve" fill="#000000" y="0px" stroke-linejoin="miter" stroke-opacity="1" fill-rule="nonzero" fill-opacity="1" d="M50.43,25.002L47.628,28.406L25.215,9.973L2.802,28.406L0,25.002L25.215,4.265L50.43,25.002ZM25.221,14.221L41.481,27.706L41.481,40.313L41.481,44.175L41.481,46.165L8.942,46.165L8.942,44.123L8.942,40.313L8.942,27.653L25.221,14.221ZM26.55,28.452C26.437,28.535,25.215,29.63,25.215,29.63C25.215,29.63,23.991,28.53,23.88,28.452C22.225,27.285,20.443,27.208,19.081,27.922C17.74,28.57,16.934,29.997,16.836,31.64C16.83,31.698,16.83,31.758,16.83,31.816C16.81,33.067,17.301,34.225,18.008,35.253C18.322,35.711,18.656,36.143,19.003,36.562C19.513,37.21,25.212,42.569,25.212,42.569C25.212,42.569,30.916,37.204,31.427,36.562C31.774,36.143,32.108,35.705,32.422,35.253C33.129,34.219,33.62,33.067,33.6,31.816C33.6,31.758,33.6,31.698,33.594,31.64C33.495,29.997,32.69,28.563,31.348,27.922C29.987,27.208,28.183,27.254,26.55,28.452ZM26.55,28.452"/>
</g>
  <g id="Ultralight-S" transform="matrix(1.0,0.0,0.0,1.0,535.7851236681615,635.5551431994115)">  <path xml:space="preserve" x="0px" xmlns:xlink="http://www.w3.org/1999/xlink" fill-opacity="1" version="1.1" stroke-dasharray="none" stroke-opacity="1" fill="#000000" stroke-linejoin="miter" stroke-miterlimit="4" stroke-linecap="butt" fill-rule="nonzero" stroke="none" y="0px" stroke-width="1px" d="M50.43,25.002L47.628,28.406L25.215,9.973L2.802,28.406L0,25.002L25.215,4.265L50.43,25.002ZM25.221,14.221L41.481,27.706L41.481,40.313L41.481,44.175L41.481,46.165L8.942,46.165L8.942,44.123L8.942,40.313L8.942,27.653L25.221,14.221ZM26.55,28.452C26.437,28.535,25.215,29.63,25.215,29.63C25.215,29.63,23.991,28.53,23.88,28.452C22.225,27.285,20.443,27.208,19.081,27.922C17.74,28.57,16.934,29.997,16.836,31.64C16.83,31.698,16.83,31.758,16.83,31.816C16.81,33.067,17.301,34.225,18.008,35.253C18.322,35.711,18.656,36.143,19.003,36.562C19.513,37.21,25.212,42.569,25.212,42.569C25.212,42.569,30.916,37.204,31.427,36.562C31.774,36.143,32.108,35.705,32.422,35.253C33.129,34.219,33.62,33.067,33.6,31.816C33.6,31.758,33.6,31.698,33.594,31.64C33.495,29.997,32.69,28.563,31.348,27.922C29.987,27.208,28.183,27.254,26.55,28.452ZM26.55,28.452"/>
</g>
 </g>
</svg>
