<?xml version="1.0" encoding="UTF-8"?>
<!--Generator: CustomSymbols by @serious_bret-->
<!DOCTYPE svg
PUBLIC "-//W3C//DTD SVG 1.1//EN"
       "http://www.w3.org/Graphics/SVG/1.1/DTD/svg11.dtd">
<svg version="1.1" xmlns="http://www.w3.org/2000/svg" xmlns:xlink="http://www.w3.org/1999/xlink" width="3300" height="2200">
 <g id="Notes">
  <rect height="2200" id="artboard" style="fill:white;opacity:1" width="3300" x="0" y="0"/>
  <line id="" style="fill:none;stroke:black;opacity:1;stroke-width:0.5;" x1="263" x2="3036" y1="292" y2="292"/>
  <text id="reftext1" style="stroke:none;fill:black;font-family:-apple-system,&quot;SF Pro Display&quot;,&quot;SF Pro Text&quot;,Helvetica,sans-serif;font-weight:bold;" transform="matrix(1 0 0 1 263 322)">Weight/Scale Variations</text>
  <text id="reftext2" style="stroke:none;fill:black;font-family:-apple-system,&quot;SF Pro Display&quot;,&quot;SF Pro Text&quot;,Helvetica,sans-serif;text-anchor:middle;" transform="matrix(1 0 0 1 559.711 322)">Ultralight</text>
  <text style="stroke:none;fill:black;font-family:-apple-system,&quot;SF Pro Display&quot;,&quot;SF Pro Text&quot;,Helvetica,sans-serif;text-anchor:middle;" transform="matrix(1 0 0 1 856.422 322)">Thin</text>
  <text style="stroke:none;fill:black;font-family:-apple-system,&quot;SF Pro Display&quot;,&quot;SF Pro Text&quot;,Helvetica,sans-serif;text-anchor:middle;" transform="matrix(1 0 0 1 1153.13 322)">Light</text>
  <text style="stroke:none;fill:black;font-family:-apple-system,&quot;SF Pro Display&quot;,&quot;SF Pro Text&quot;,Helvetica,sans-serif;text-anchor:middle;" transform="matrix(1 0 0 1 1449.84 322)">Regular</text>
  <text style="stroke:none;fill:black;font-family:-apple-system,&quot;SF Pro Display&quot;,&quot;SF Pro Text&quot;,Helvetica,sans-serif;text-anchor:middle;" transform="matrix(1 0 0 1 1746.56 322)">Medium</text>
  <text style="stroke:none;fill:black;font-family:-apple-system,&quot;SF Pro Display&quot;,&quot;SF Pro Text&quot;,Helvetica,sans-serif;text-anchor:middle;" transform="matrix(1 0 0 1 2043.27 322)">Semibold</text>
  <text style="stroke:none;fill:black;font-family:-apple-system,&quot;SF Pro Display&quot;,&quot;SF Pro Text&quot;,Helvetica,sans-serif;text-anchor:middle;" transform="matrix(1 0 0 1 2339.98 322)">Bold</text>
  <text style="stroke:none;fill:black;font-family:-apple-system,&quot;SF Pro Display&quot;,&quot;SF Pro Text&quot;,Helvetica,sans-serif;text-anchor:middle;" transform="matrix(1 0 0 1 2636.69 322)">Heavy</text>
  <text style="stroke:none;fill:black;font-family:-apple-system,&quot;SF Pro Display&quot;,&quot;SF Pro Text&quot;,Helvetica,sans-serif;text-anchor:middle;" transform="matrix(1 0 0 1 2933.4 322)">Black</text>
  <line id="" style="fill:none;stroke:black;opacity:1;stroke-width:0.5;" x1="263" x2="3036" y1="1903" y2="1903"/>
  <g id="" transform="matrix(1 0 0 1 263 1933)">
   <path d="M9.24805 0.830078C13.5547 0.830078 17.1387-2.74414 17.1387-7.05078C17.1387-11.3574 13.5449-14.9316 9.23828-14.9316C4.94141-14.9316 1.36719-11.3574 1.36719-7.05078C1.36719-2.74414 4.95117 0.830078 9.24805 0.830078ZM9.24805-0.654297C5.70312-0.654297 2.87109-3.49609 2.87109-7.05078C2.87109-10.6055 5.69336-13.4473 9.23828-13.4473C12.793-13.4473 15.6348-10.6055 15.6445-7.05078C15.6543-3.49609 12.8027-0.654297 9.24805-0.654297ZM6.39648-6.31836L8.50586-6.31836L8.50586-4.19922C8.50586-3.75977 8.79883-3.45703 9.22852-3.45703C9.67773-3.45703 9.9707-3.75977 9.9707-4.19922L9.9707-6.31836L12.0996-6.31836C12.5391-6.31836 12.8418-6.61133 12.8418-7.04102C12.8418-7.48047 12.5391-7.7832 12.0996-7.7832L9.9707-7.7832L9.9707-9.89258C9.9707-10.3418 9.67773-10.6445 9.22852-10.6445C8.79883-10.6445 8.50586-10.3418 8.50586-9.89258L8.50586-7.7832L6.39648-7.7832C5.94727-7.7832 5.64453-7.48047 5.64453-7.04102C5.64453-6.61133 5.94727-6.31836 6.39648-6.31836Z"/>
  </g>
  <g id="" transform="matrix(1 0 0 1 281.506 1933)">
   <path d="M11.709 2.91016C17.1582 2.91016 21.6699-1.61133 21.6699-7.05078C21.6699-12.5 17.1484-17.0117 11.6992-17.0117C6.25977-17.0117 1.74805-12.5 1.74805-7.05078C1.74805-1.61133 6.26953 2.91016 11.709 2.91016ZM11.709 1.25C7.09961 1.25 3.41797-2.44141 3.41797-7.05078C3.41797-11.6602 7.08984-15.3516 11.6992-15.3516C16.3086-15.3516 20-11.6602 20.0098-7.05078C20.0195-2.44141 16.3184 1.25 11.709 1.25ZM7.98828-6.23047L10.8789-6.23047L10.8789-3.32031C10.8789-2.83203 11.2109-2.5 11.6895-2.5C12.1777-2.5 12.5195-2.83203 12.5195-3.32031L12.5195-6.23047L15.4297-6.23047C15.918-6.23047 16.25-6.5625 16.25-7.04102C16.25-7.5293 15.918-7.87109 15.4297-7.87109L12.5195-7.87109L12.5195-10.7617C12.5195-11.2695 12.1777-11.6016 11.6895-11.6016C11.2109-11.6016 10.8789-11.2598 10.8789-10.7617L10.8789-7.87109L7.98828-7.87109C7.48047-7.87109 7.14844-7.5293 7.14844-7.04102C7.14844-6.5625 7.49023-6.23047 7.98828-6.23047Z"/>
  </g>
  <g id="" transform="matrix(1 0 0 1 304.924 1933)">
   <path d="M14.9707 5.66406C21.9336 5.66406 27.6953-0.0976562 27.6953-7.05078C27.6953-14.0137 21.9238-19.7754 14.9609-19.7754C8.00781-19.7754 2.25586-14.0137 2.25586-7.05078C2.25586-0.0976562 8.01758 5.66406 14.9707 5.66406ZM14.9707 3.84766C8.93555 3.84766 4.08203-1.01562 4.08203-7.05078C4.08203-13.0957 8.92578-17.9492 14.9609-17.9492C21.0059-17.9492 25.8594-13.0957 25.8691-7.05078C25.8789-1.01562 21.0156 3.84766 14.9707 3.84766ZM10.0586-6.14258L14.0625-6.14258L14.0625-2.12891C14.0625-1.5918 14.4336-1.2207 14.9512-1.2207C15.4883-1.2207 15.8594-1.5918 15.8594-2.12891L15.8594-6.14258L19.8828-6.14258C20.4102-6.14258 20.791-6.51367 20.791-7.03125C20.791-7.56836 20.4199-7.94922 19.8828-7.94922L15.8594-7.94922L15.8594-11.9531C15.8594-12.5098 15.4883-12.8809 14.9512-12.8809C14.4336-12.8809 14.0625-12.5 14.0625-11.9531L14.0625-7.94922L10.0586-7.94922C9.50195-7.94922 9.13086-7.56836 9.13086-7.03125C9.13086-6.51367 9.51172-6.14258 10.0586-6.14258Z"/>
  </g>
  <text style="stroke:none;fill:black;font-family:-apple-system,&quot;SF Pro Display&quot;,&quot;SF Pro Text&quot;,Helvetica,sans-serif;font-weight:bold;" transform="matrix(1 0 0 1 263 1953)">Design Variations</text>
  <text style="stroke:none;fill:black;font-family:-apple-system,&quot;SF Pro Display&quot;,&quot;SF Pro Text&quot;,Helvetica,sans-serif;" transform="matrix(1 0 0 1 263 1971)">Symbols are supported in up to nine weights and three scales.</text>
  <text style="stroke:none;fill:black;font-family:-apple-system,&quot;SF Pro Display&quot;,&quot;SF Pro Text&quot;,Helvetica,sans-serif;" transform="matrix(1 0 0 1 263 1989)">For optimal layout with text and other symbols, vertically align</text>
  <text style="stroke:none;fill:black;font-family:-apple-system,&quot;SF Pro Display&quot;,&quot;SF Pro Text&quot;,Helvetica,sans-serif;" transform="matrix(1 0 0 1 263 2007)">symbols with the adjacent text.</text>
  <line id="" style="fill:none;stroke:#00AEEF;stroke-width:0.5;opacity:1.0;" x1="776" x2="776" y1="1919" y2="1933"/>
  <g id="" transform="matrix(1 0 0 1 776 1933)">
   <path d="M3.31055 0.126953C3.82812 0.126953 4.08203-0.0683594 4.26758-0.605469L5.52734-4.0625L11.2891-4.0625L12.5488-0.605469C12.7344-0.0683594 12.9883 0.126953 13.4961 0.126953C14.0137 0.126953 14.3457-0.185547 14.3457-0.673828C14.3457-0.839844 14.3164-0.986328 14.2383-1.20117L9.6582-13.3887C9.43359-13.9941 9.0332-14.2871 8.4082-14.2871C7.80273-14.2871 7.39258-13.9941 7.17773-13.3984L2.59766-1.19141C2.51953-0.976562 2.49023-0.830078 2.49023-0.664062C2.49023-0.175781 2.80273 0.126953 3.31055 0.126953ZM6.00586-5.53711L8.37891-12.1094L8.42773-12.1094L10.8008-5.53711Z"/>
  </g>
  <line id="" style="fill:none;stroke:#00AEEF;stroke-width:0.5;opacity:1.0;" x1="792.836" x2="792.836" y1="1919" y2="1933"/>
  <text style="stroke:none;fill:black;font-family:-apple-system,&quot;SF Pro Display&quot;,&quot;SF Pro Text&quot;,Helvetica,sans-serif;font-weight:bold;" transform="matrix(1 0 0 1 776 1953)">Margins</text>
  <text style="stroke:none;fill:black;font-family:-apple-system,&quot;SF Pro Display&quot;,&quot;SF Pro Text&quot;,Helvetica,sans-serif;" transform="matrix(1 0 0 1 776 1971)">Leading and trailing margins on the left and right side of each symbol</text>
  <text style="stroke:none;fill:black;font-family:-apple-system,&quot;SF Pro Display&quot;,&quot;SF Pro Text&quot;,Helvetica,sans-serif;" transform="matrix(1 0 0 1 776 1989)">can be adjusted by modifying the x-location of the margin guidelines.</text>
  <text style="stroke:none;fill:black;font-family:-apple-system,&quot;SF Pro Display&quot;,&quot;SF Pro Text&quot;,Helvetica,sans-serif;" transform="matrix(1 0 0 1 776 2007)">Modifications are automatically applied proportionally to all</text>
  <text style="stroke:none;fill:black;font-family:-apple-system,&quot;SF Pro Display&quot;,&quot;SF Pro Text&quot;,Helvetica,sans-serif;" transform="matrix(1 0 0 1 776 2025)">scales and weights.</text>
  <g id="" transform="matrix(1 0 0 1 1289 1933)">
   <path d="M2.8418 1.86523L4.54102 3.57422C5.40039 4.44336 6.38672 4.38477 7.31445 3.35938L17.4902-7.85156C17.7539-7.76367 18.0273-7.7832 18.3398-7.8418L19.4043-8.03711L20.0684-7.36328L20.0293-6.80664C19.9902-6.30859 20.1172-5.92773 20.6055-5.44922L21.3672-4.70703C21.8457-4.22852 22.4609-4.19922 22.9297-4.66797L25.8398-7.58789C26.3086-8.05664 26.2891-8.65234 25.8105-9.13086L25.0391-9.89258C24.5605-10.3711 24.1895-10.5273 23.7109-10.4883L23.1348-10.4395L22.4902-11.0742L22.7344-12.1973C22.8613-12.7637 22.7051-13.2031 22.1191-13.7891L19.9219-15.9766C16.582-19.2969 12.1484-19.2188 9.25781-16.3281C8.83789-15.918 8.80859-15.3418 9.04297-14.9512C9.27734-14.5898 9.73633-14.3555 10.3809-14.5215C11.8457-14.8633 13.3691-14.9219 14.7949-13.9844L14.209-12.5293C14.0137-12.0508 13.9844-11.6504 14.1113-11.2891L3.04688-0.898438C2.06055 0.0195312 1.98242 0.996094 2.8418 1.86523ZM10.752-15.957C13.1836-17.7344 16.4746-17.4316 18.7012-15.2051L21.1328-12.793C21.3672-12.5586 21.4062-12.373 21.3379-12.0312L21.0156-10.5469L22.5195-9.0625L23.5059-9.12109C23.7598-9.13086 23.8379-9.11133 24.0332-8.91602L24.6094-8.33984L22.168-5.89844L21.5918-6.47461C21.3965-6.66992 21.3672-6.74805 21.377-7.01172L21.4453-7.98828L19.9512-9.47266L18.4277-9.21875C18.1055-9.15039 17.959-9.17969 17.7148-9.41406L15.7129-11.416C15.459-11.6504 15.4297-11.8164 15.5859-12.1875L16.4648-14.2773C14.9023-15.7324 12.8711-16.3574 10.8398-15.7617C10.6836-15.7227 10.625-15.8496 10.752-15.957ZM5.27344 2.30469L4.10156 1.14258C3.63281 0.683594 3.74023 0.341797 4.14062-0.0195312L14.9512-10.1953L16.416-8.71094L6.42578 2.27539C6.07422 2.67578 5.74219 2.77344 5.27344 2.30469Z"/>
  </g>
  <text style="stroke:none;fill:black;font-family:-apple-system,&quot;SF Pro Display&quot;,&quot;SF Pro Text&quot;,Helvetica,sans-serif;font-weight:bold;" transform="matrix(1 0 0 1 1289 1953)">Exporting</text>
  <text style="stroke:none;fill:black;font-family:-apple-system,&quot;SF Pro Display&quot;,&quot;SF Pro Text&quot;,Helvetica,sans-serif;" transform="matrix(1 0 0 1 1289 1971)">Symbols should be outlined when exporting to ensure the</text>
  <text style="stroke:none;fill:black;font-family:-apple-system,&quot;SF Pro Display&quot;,&quot;SF Pro Text&quot;,Helvetica,sans-serif;" transform="matrix(1 0 0 1 1289 1989)">design is preserved when submitting to Xcode.</text>
  <text id="template-version" style="stroke:none;fill:black;font-family:-apple-system,&quot;SF Pro Display&quot;,&quot;SF Pro Text&quot;,Helvetica,sans-serif;text-anchor:end;" transform="matrix(1 0 0 1 3036 1933)">Template v.2.0</text>
  <text style="stroke:none;fill:black;font-family:-apple-system,&quot;SF Pro Display&quot;,&quot;SF Pro Text&quot;,Helvetica,sans-serif;text-anchor:end;" transform="matrix(1 0 0 1 3036 1951)">Requires Xcode 12 or greater</text>
  <text style="stroke:none;fill:black;font-family:-apple-system,&quot;SF Pro Display&quot;,&quot;SF Pro Text&quot;,Helvetica,sans-serif;" transform="matrix(1 0 0 1 263 726)">Small</text>
  <text style="stroke:none;fill:black;font-family:-apple-system,&quot;SF Pro Display&quot;,&quot;SF Pro Text&quot;,Helvetica,sans-serif;" transform="matrix(1 0 0 1 263 1156)">Medium</text>
  <text style="stroke:none;fill:black;font-family:-apple-system,&quot;SF Pro Display&quot;,&quot;SF Pro Text&quot;,Helvetica,sans-serif;" transform="matrix(1 0 0 1 263 1586)">Large</text>
 </g>
 <g id="Guides">
  <g id="H-reference" style="fill:#27AAE1;stroke:none;" transform="matrix(1 0 0 1 339 696)">
   <path d="M0.976562 0L3.66211 0L12.9883-24.4629L45.752-24.4629L55.127 0L57.7637 0L30.6152-70.459L28.125-70.459ZM29.3457-67.1387L29.4434-67.1387L44.873-26.709L13.8672-26.709Z"/>
  </g>
  <line id="Baseline-S" style="fill:none;stroke:#27AAE1;opacity:1;stroke-width:0.5;" x1="263" x2="3036" y1="696" y2="696"/>
  <line id="Capline-S" style="fill:none;stroke:#27AAE1;opacity:1;stroke-width:0.5;" x1="263" x2="3036" y1="625.541" y2="625.541"/>
  <g id="H-reference" style="fill:#27AAE1;stroke:none;" transform="matrix(1 0 0 1 339 1126)">
   <path d="M0.976562 0L3.66211 0L12.9883-24.4629L45.752-24.4629L55.127 0L57.7637 0L30.6152-70.459L28.125-70.459ZM29.3457-67.1387L29.4434-67.1387L44.873-26.709L13.8672-26.709Z"/>
  </g>
  <line id="Baseline-M" style="fill:none;stroke:#27AAE1;opacity:1;stroke-width:0.5;" x1="263" x2="3036" y1="1126" y2="1126"/>
  <line id="Capline-M" style="fill:none;stroke:#27AAE1;opacity:1;stroke-width:0.5;" x1="263" x2="3036" y1="1055.54" y2="1055.54"/>
  <g id="H-reference" style="fill:#27AAE1;stroke:none;" transform="matrix(1 0 0 1 339 1556)">
   <path d="M0.976562 0L3.66211 0L12.9883-24.4629L45.752-24.4629L55.127 0L57.7637 0L30.6152-70.459L28.125-70.459ZM29.3457-67.1387L29.4434-67.1387L44.873-26.709L13.8672-26.709Z"/>
  </g>
  <line id="Baseline-L" style="fill:none;stroke:#27AAE1;opacity:1;stroke-width:0.5;" x1="263" x2="3036" y1="1556" y2="1556"/>
  <line id="Capline-L" style="fill:none;stroke:#27AAE1;opacity:1;stroke-width:0.5;" x1="263" x2="3036" y1="1485.54" y2="1485.54"/>
  <line id="left-margin" x1="1390.6441317365268" x2="1390.6441317365268" y1="1030.79" y2="1150.12" style="fill:none;stroke:#00AEEF;stroke-width:0.5;opacity:1.0;"/>
  <line id="right-margin" x1="1511.615868263473" x2="1511.615868263473" y1="1030.79" y2="1150.12" style="fill:none;stroke:#00AEEF;stroke-width:0.5;opacity:1.0;"/>
 </g>
 <g id="Symbols">
  <g id="Black-L" transform="matrix(1.0,0.0,0.0,1.0,2881.6005645851155,1475.3233447265625)">  <path stroke="none" y="0px" stroke-linejoin="miter" stroke-linecap="butt" x="0px" stroke-miterlimit="4" fill-rule="evenodd" stroke-width="1px" stroke-dasharray="none" fill="#000000" xmlns:xlink="http://www.w3.org/1999/xlink" fill-opacity="1" version="1.1" stroke-opacity="1" xml:space="preserve" d="M55.213,16.199L55.213,26.704L84.163,26.704C88.854,26.704,92.69,30.54,92.69,35.231L92.69,46.004L104.284,46.004C105.312,46.004,106.159,46.842,106.159,47.879L106.159,69.719C106.159,70.747,105.321,71.593,104.284,71.593L92.69,71.593L92.69,82.366C92.69,87.058,88.854,90.893,84.163,90.893L21.097,90.893C16.406,90.893,12.57,87.058,12.57,82.366L12.57,71.593L1.875,71.593C0.838,71.593,0,70.755,0,69.727L0,47.879C0,46.851,0.838,46.004,1.875,46.004L12.57,46.004L12.57,35.239C12.57,30.548,16.406,26.713,21.097,26.713L50.047,26.713L50.047,16.199C46.721,15.11,44.328,11.991,44.328,8.302C44.328,3.715,48.043,0,52.63,0C57.218,0,60.932,3.715,60.932,8.302C60.932,11.991,58.531,15.11,55.213,16.199L55.213,16.199ZM35.447,68.889L70.703,68.889C72.423,68.889,73.831,70.297,73.831,72.017L73.831,73.485C73.831,75.205,72.423,76.613,70.703,76.613L35.447,76.613C33.728,76.613,32.319,75.205,32.319,73.485L32.319,72.017C32.319,70.289,33.728,68.889,35.447,68.889L35.447,68.889ZM67.991,41.114C72.63,41.114,76.397,44.872,76.397,49.52C76.397,54.159,72.639,57.917,67.991,57.917C63.343,57.917,59.593,54.159,59.593,49.52C59.585,44.872,63.351,41.114,67.991,41.114L67.991,41.114ZM38.168,41.114C42.807,41.114,46.565,44.872,46.565,49.52C46.565,54.159,42.807,57.917,38.168,57.917C33.529,57.917,29.771,54.159,29.771,49.52C29.771,44.872,33.529,41.114,38.168,41.114L38.168,41.114ZM38.168,41.114"/>
</g>
  <g id="Heavy-L" transform="matrix(1.0,0.0,0.0,1.0,2584.8905645851155,1475.3233447265625)">  <path fill="#000000" fill-rule="evenodd" stroke-miterlimit="4" x="0px" xml:space="preserve" stroke-width="1px" version="1.1" stroke-dasharray="none" y="0px" stroke-linejoin="miter" stroke="none" xmlns:xlink="http://www.w3.org/1999/xlink" stroke-linecap="butt" stroke-opacity="1" fill-opacity="1" d="M55.213,16.199L55.213,26.704L84.163,26.704C88.854,26.704,92.69,30.54,92.69,35.231L92.69,46.004L104.284,46.004C105.312,46.004,106.159,46.842,106.159,47.879L106.159,69.719C106.159,70.747,105.321,71.593,104.284,71.593L92.69,71.593L92.69,82.366C92.69,87.058,88.854,90.893,84.163,90.893L21.097,90.893C16.406,90.893,12.57,87.058,12.57,82.366L12.57,71.593L1.875,71.593C0.838,71.593,0,70.755,0,69.727L0,47.879C0,46.851,0.838,46.004,1.875,46.004L12.57,46.004L12.57,35.239C12.57,30.548,16.406,26.713,21.097,26.713L50.047,26.713L50.047,16.199C46.721,15.11,44.328,11.991,44.328,8.302C44.328,3.715,48.043,0,52.63,0C57.218,0,60.932,3.715,60.932,8.302C60.932,11.991,58.531,15.11,55.213,16.199L55.213,16.199ZM35.447,68.889L70.703,68.889C72.423,68.889,73.831,70.297,73.831,72.017L73.831,73.485C73.831,75.205,72.423,76.613,70.703,76.613L35.447,76.613C33.728,76.613,32.319,75.205,32.319,73.485L32.319,72.017C32.319,70.289,33.728,68.889,35.447,68.889L35.447,68.889ZM67.991,41.114C72.63,41.114,76.397,44.872,76.397,49.52C76.397,54.159,72.639,57.917,67.991,57.917C63.343,57.917,59.593,54.159,59.593,49.52C59.585,44.872,63.351,41.114,67.991,41.114L67.991,41.114ZM38.168,41.114C42.807,41.114,46.565,44.872,46.565,49.52C46.565,54.159,42.807,57.917,38.168,57.917C33.529,57.917,29.771,54.159,29.771,49.52C29.771,44.872,33.529,41.114,38.168,41.114L38.168,41.114ZM38.168,41.114"/>
</g>
  <g id="Bold-L" transform="matrix(1.0,0.0,0.0,1.0,2288.1805645851155,1475.3233447265625)">  <path stroke-linecap="butt" stroke-width="1px" fill-rule="evenodd" xml:space="preserve" x="0px" stroke="none" stroke-opacity="1" y="0px" fill-opacity="1" stroke-miterlimit="4" xmlns:xlink="http://www.w3.org/1999/xlink" stroke-dasharray="none" version="1.1" fill="#000000" stroke-linejoin="miter" d="M55.213,16.199L55.213,26.704L84.163,26.704C88.854,26.704,92.69,30.54,92.69,35.231L92.69,46.004L104.284,46.004C105.312,46.004,106.159,46.842,106.159,47.879L106.159,69.719C106.159,70.747,105.321,71.593,104.284,71.593L92.69,71.593L92.69,82.366C92.69,87.058,88.854,90.893,84.163,90.893L21.097,90.893C16.406,90.893,12.57,87.058,12.57,82.366L12.57,71.593L1.875,71.593C0.838,71.593,0,70.755,0,69.727L0,47.879C0,46.851,0.838,46.004,1.875,46.004L12.57,46.004L12.57,35.239C12.57,30.548,16.406,26.713,21.097,26.713L50.047,26.713L50.047,16.199C46.721,15.11,44.328,11.991,44.328,8.302C44.328,3.715,48.043,0,52.63,0C57.218,0,60.932,3.715,60.932,8.302C60.932,11.991,58.531,15.11,55.213,16.199L55.213,16.199ZM35.447,68.889L70.703,68.889C72.423,68.889,73.831,70.297,73.831,72.017L73.831,73.485C73.831,75.205,72.423,76.613,70.703,76.613L35.447,76.613C33.728,76.613,32.319,75.205,32.319,73.485L32.319,72.017C32.319,70.289,33.728,68.889,35.447,68.889L35.447,68.889ZM67.991,41.114C72.63,41.114,76.397,44.872,76.397,49.52C76.397,54.159,72.639,57.917,67.991,57.917C63.343,57.917,59.593,54.159,59.593,49.52C59.585,44.872,63.351,41.114,67.991,41.114L67.991,41.114ZM38.168,41.114C42.807,41.114,46.565,44.872,46.565,49.52C46.565,54.159,42.807,57.917,38.168,57.917C33.529,57.917,29.771,54.159,29.771,49.52C29.771,44.872,33.529,41.114,38.168,41.114L38.168,41.114ZM38.168,41.114"/>
</g>
  <g id="Semibold-L" transform="matrix(1.0,0.0,0.0,1.0,1991.4705645851154,1475.3233447265625)">  <path stroke-linejoin="miter" stroke-miterlimit="4" xml:space="preserve" version="1.1" xmlns:xlink="http://www.w3.org/1999/xlink" stroke-linecap="butt" stroke-opacity="1" stroke-dasharray="none" stroke="none" fill="#000000" fill-rule="evenodd" y="0px" stroke-width="1px" fill-opacity="1" x="0px" d="M55.213,16.199L55.213,26.704L84.163,26.704C88.854,26.704,92.69,30.54,92.69,35.231L92.69,46.004L104.284,46.004C105.312,46.004,106.159,46.842,106.159,47.879L106.159,69.719C106.159,70.747,105.321,71.593,104.284,71.593L92.69,71.593L92.69,82.366C92.69,87.058,88.854,90.893,84.163,90.893L21.097,90.893C16.406,90.893,12.57,87.058,12.57,82.366L12.57,71.593L1.875,71.593C0.838,71.593,0,70.755,0,69.727L0,47.879C0,46.851,0.838,46.004,1.875,46.004L12.57,46.004L12.57,35.239C12.57,30.548,16.406,26.713,21.097,26.713L50.047,26.713L50.047,16.199C46.721,15.11,44.328,11.991,44.328,8.302C44.328,3.715,48.043,0,52.63,0C57.218,0,60.932,3.715,60.932,8.302C60.932,11.991,58.531,15.11,55.213,16.199L55.213,16.199ZM35.447,68.889L70.703,68.889C72.423,68.889,73.831,70.297,73.831,72.017L73.831,73.485C73.831,75.205,72.423,76.613,70.703,76.613L35.447,76.613C33.728,76.613,32.319,75.205,32.319,73.485L32.319,72.017C32.319,70.289,33.728,68.889,35.447,68.889L35.447,68.889ZM67.991,41.114C72.63,41.114,76.397,44.872,76.397,49.52C76.397,54.159,72.639,57.917,67.991,57.917C63.343,57.917,59.593,54.159,59.593,49.52C59.585,44.872,63.351,41.114,67.991,41.114L67.991,41.114ZM38.168,41.114C42.807,41.114,46.565,44.872,46.565,49.52C46.565,54.159,42.807,57.917,38.168,57.917C33.529,57.917,29.771,54.159,29.771,49.52C29.771,44.872,33.529,41.114,38.168,41.114L38.168,41.114ZM38.168,41.114"/>
</g>
  <g id="Medium-L" transform="matrix(1.0,0.0,0.0,1.0,1694.7605645851154,1475.3233447265625)">  <path y="0px" stroke-miterlimit="4" fill-rule="evenodd" x="0px" xmlns:xlink="http://www.w3.org/1999/xlink" stroke-dasharray="none" fill="#000000" stroke-opacity="1" stroke="none" stroke-linejoin="miter" stroke-width="1px" fill-opacity="1" version="1.1" xml:space="preserve" stroke-linecap="butt" d="M55.213,16.199L55.213,26.704L84.163,26.704C88.854,26.704,92.69,30.54,92.69,35.231L92.69,46.004L104.284,46.004C105.312,46.004,106.159,46.842,106.159,47.879L106.159,69.719C106.159,70.747,105.321,71.593,104.284,71.593L92.69,71.593L92.69,82.366C92.69,87.058,88.854,90.893,84.163,90.893L21.097,90.893C16.406,90.893,12.57,87.058,12.57,82.366L12.57,71.593L1.875,71.593C0.838,71.593,0,70.755,0,69.727L0,47.879C0,46.851,0.838,46.004,1.875,46.004L12.57,46.004L12.57,35.239C12.57,30.548,16.406,26.713,21.097,26.713L50.047,26.713L50.047,16.199C46.721,15.11,44.328,11.991,44.328,8.302C44.328,3.715,48.043,0,52.63,0C57.218,0,60.932,3.715,60.932,8.302C60.932,11.991,58.531,15.11,55.213,16.199L55.213,16.199ZM35.447,68.889L70.703,68.889C72.423,68.889,73.831,70.297,73.831,72.017L73.831,73.485C73.831,75.205,72.423,76.613,70.703,76.613L35.447,76.613C33.728,76.613,32.319,75.205,32.319,73.485L32.319,72.017C32.319,70.289,33.728,68.889,35.447,68.889L35.447,68.889ZM67.991,41.114C72.63,41.114,76.397,44.872,76.397,49.52C76.397,54.159,72.639,57.917,67.991,57.917C63.343,57.917,59.593,54.159,59.593,49.52C59.585,44.872,63.351,41.114,67.991,41.114L67.991,41.114ZM38.168,41.114C42.807,41.114,46.565,44.872,46.565,49.52C46.565,54.159,42.807,57.917,38.168,57.917C33.529,57.917,29.771,54.159,29.771,49.52C29.771,44.872,33.529,41.114,38.168,41.114L38.168,41.114ZM38.168,41.114"/>
</g>
  <g id="Regular-L" transform="matrix(1.0,0.0,0.0,1.0,1398.0505645851154,1475.3233447265625)">  <path x="0px" stroke-linejoin="miter" stroke="none" stroke-dasharray="none" fill-rule="evenodd" version="1.1" y="0px" stroke-miterlimit="4" stroke-width="1px" xml:space="preserve" fill="#000000" fill-opacity="1" stroke-linecap="butt" xmlns:xlink="http://www.w3.org/1999/xlink" stroke-opacity="1" d="M55.213,16.199L55.213,26.704L84.163,26.704C88.854,26.704,92.69,30.54,92.69,35.231L92.69,46.004L104.284,46.004C105.312,46.004,106.159,46.842,106.159,47.879L106.159,69.719C106.159,70.747,105.321,71.593,104.284,71.593L92.69,71.593L92.69,82.366C92.69,87.058,88.854,90.893,84.163,90.893L21.097,90.893C16.406,90.893,12.57,87.058,12.57,82.366L12.57,71.593L1.875,71.593C0.838,71.593,0,70.755,0,69.727L0,47.879C0,46.851,0.838,46.004,1.875,46.004L12.57,46.004L12.57,35.239C12.57,30.548,16.406,26.713,21.097,26.713L50.047,26.713L50.047,16.199C46.721,15.11,44.328,11.991,44.328,8.302C44.328,3.715,48.043,0,52.63,0C57.218,0,60.932,3.715,60.932,8.302C60.932,11.991,58.531,15.11,55.213,16.199L55.213,16.199ZM35.447,68.889L70.703,68.889C72.423,68.889,73.831,70.297,73.831,72.017L73.831,73.485C73.831,75.205,72.423,76.613,70.703,76.613L35.447,76.613C33.728,76.613,32.319,75.205,32.319,73.485L32.319,72.017C32.319,70.289,33.728,68.889,35.447,68.889L35.447,68.889ZM67.991,41.114C72.63,41.114,76.397,44.872,76.397,49.52C76.397,54.159,72.639,57.917,67.991,57.917C63.343,57.917,59.593,54.159,59.593,49.52C59.585,44.872,63.351,41.114,67.991,41.114L67.991,41.114ZM38.168,41.114C42.807,41.114,46.565,44.872,46.565,49.52C46.565,54.159,42.807,57.917,38.168,57.917C33.529,57.917,29.771,54.159,29.771,49.52C29.771,44.872,33.529,41.114,38.168,41.114L38.168,41.114ZM38.168,41.114"/>
</g>
  <g id="Light-L" transform="matrix(1.0,0.0,0.0,1.0,1101.3405645851155,1475.3233447265625)">  <path xml:space="preserve" stroke-miterlimit="4" version="1.1" fill="#000000" stroke-width="1px" stroke-linecap="butt" stroke-opacity="1" y="0px" stroke-linejoin="miter" fill-rule="evenodd" stroke-dasharray="none" stroke="none" xmlns:xlink="http://www.w3.org/1999/xlink" x="0px" fill-opacity="1" d="M55.213,16.199L55.213,26.704L84.163,26.704C88.854,26.704,92.69,30.54,92.69,35.231L92.69,46.004L104.284,46.004C105.312,46.004,106.159,46.842,106.159,47.879L106.159,69.719C106.159,70.747,105.321,71.593,104.284,71.593L92.69,71.593L92.69,82.366C92.69,87.058,88.854,90.893,84.163,90.893L21.097,90.893C16.406,90.893,12.57,87.058,12.57,82.366L12.57,71.593L1.875,71.593C0.838,71.593,0,70.755,0,69.727L0,47.879C0,46.851,0.838,46.004,1.875,46.004L12.57,46.004L12.57,35.239C12.57,30.548,16.406,26.713,21.097,26.713L50.047,26.713L50.047,16.199C46.721,15.11,44.328,11.991,44.328,8.302C44.328,3.715,48.043,0,52.63,0C57.218,0,60.932,3.715,60.932,8.302C60.932,11.991,58.531,15.11,55.213,16.199L55.213,16.199ZM35.447,68.889L70.703,68.889C72.423,68.889,73.831,70.297,73.831,72.017L73.831,73.485C73.831,75.205,72.423,76.613,70.703,76.613L35.447,76.613C33.728,76.613,32.319,75.205,32.319,73.485L32.319,72.017C32.319,70.289,33.728,68.889,35.447,68.889L35.447,68.889ZM67.991,41.114C72.63,41.114,76.397,44.872,76.397,49.52C76.397,54.159,72.639,57.917,67.991,57.917C63.343,57.917,59.593,54.159,59.593,49.52C59.585,44.872,63.351,41.114,67.991,41.114L67.991,41.114ZM38.168,41.114C42.807,41.114,46.565,44.872,46.565,49.52C46.565,54.159,42.807,57.917,38.168,57.917C33.529,57.917,29.771,54.159,29.771,49.52C29.771,44.872,33.529,41.114,38.168,41.114L38.168,41.114ZM38.168,41.114"/>
</g>
  <g id="Thin-L" transform="matrix(1.0,0.0,0.0,1.0,804.6305645851155,1475.3233447265625)">  <path stroke="none" stroke-miterlimit="4" fill="#000000" stroke-opacity="1" version="1.1" stroke-linejoin="miter" stroke-width="1px" xml:space="preserve" stroke-dasharray="none" y="0px" x="0px" fill-opacity="1" fill-rule="evenodd" xmlns:xlink="http://www.w3.org/1999/xlink" stroke-linecap="butt" d="M55.213,16.199L55.213,26.704L84.163,26.704C88.854,26.704,92.69,30.54,92.69,35.231L92.69,46.004L104.284,46.004C105.312,46.004,106.159,46.842,106.159,47.879L106.159,69.719C106.159,70.747,105.321,71.593,104.284,71.593L92.69,71.593L92.69,82.366C92.69,87.058,88.854,90.893,84.163,90.893L21.097,90.893C16.406,90.893,12.57,87.058,12.57,82.366L12.57,71.593L1.875,71.593C0.838,71.593,0,70.755,0,69.727L0,47.879C0,46.851,0.838,46.004,1.875,46.004L12.57,46.004L12.57,35.239C12.57,30.548,16.406,26.713,21.097,26.713L50.047,26.713L50.047,16.199C46.721,15.11,44.328,11.991,44.328,8.302C44.328,3.715,48.043,0,52.63,0C57.218,0,60.932,3.715,60.932,8.302C60.932,11.991,58.531,15.11,55.213,16.199L55.213,16.199ZM35.447,68.889L70.703,68.889C72.423,68.889,73.831,70.297,73.831,72.017L73.831,73.485C73.831,75.205,72.423,76.613,70.703,76.613L35.447,76.613C33.728,76.613,32.319,75.205,32.319,73.485L32.319,72.017C32.319,70.289,33.728,68.889,35.447,68.889L35.447,68.889ZM67.991,41.114C72.63,41.114,76.397,44.872,76.397,49.52C76.397,54.159,72.639,57.917,67.991,57.917C63.343,57.917,59.593,54.159,59.593,49.52C59.585,44.872,63.351,41.114,67.991,41.114L67.991,41.114ZM38.168,41.114C42.807,41.114,46.565,44.872,46.565,49.52C46.565,54.159,42.807,57.917,38.168,57.917C33.529,57.917,29.771,54.159,29.771,49.52C29.771,44.872,33.529,41.114,38.168,41.114L38.168,41.114ZM38.168,41.114"/>
</g>
  <g id="Ultralight-L" transform="matrix(1.0,0.0,0.0,1.0,507.92056458511547,1475.3233447265625)">  <path stroke-miterlimit="4" stroke-linejoin="miter" version="1.1" xmlns:xlink="http://www.w3.org/1999/xlink" stroke-linecap="butt" fill-rule="evenodd" stroke="none" fill="#000000" stroke-width="1px" stroke-dasharray="none" fill-opacity="1" xml:space="preserve" x="0px" stroke-opacity="1" y="0px" d="M55.213,16.199L55.213,26.704L84.163,26.704C88.854,26.704,92.69,30.54,92.69,35.231L92.69,46.004L104.284,46.004C105.312,46.004,106.159,46.842,106.159,47.879L106.159,69.719C106.159,70.747,105.321,71.593,104.284,71.593L92.69,71.593L92.69,82.366C92.69,87.058,88.854,90.893,84.163,90.893L21.097,90.893C16.406,90.893,12.57,87.058,12.57,82.366L12.57,71.593L1.875,71.593C0.838,71.593,0,70.755,0,69.727L0,47.879C0,46.851,0.838,46.004,1.875,46.004L12.57,46.004L12.57,35.239C12.57,30.548,16.406,26.713,21.097,26.713L50.047,26.713L50.047,16.199C46.721,15.11,44.328,11.991,44.328,8.302C44.328,3.715,48.043,0,52.63,0C57.218,0,60.932,3.715,60.932,8.302C60.932,11.991,58.531,15.11,55.213,16.199L55.213,16.199ZM35.447,68.889L70.703,68.889C72.423,68.889,73.831,70.297,73.831,72.017L73.831,73.485C73.831,75.205,72.423,76.613,70.703,76.613L35.447,76.613C33.728,76.613,32.319,75.205,32.319,73.485L32.319,72.017C32.319,70.289,33.728,68.889,35.447,68.889L35.447,68.889ZM67.991,41.114C72.63,41.114,76.397,44.872,76.397,49.52C76.397,54.159,72.639,57.917,67.991,57.917C63.343,57.917,59.593,54.159,59.593,49.52C59.585,44.872,63.351,41.114,67.991,41.114L67.991,41.114ZM38.168,41.114C42.807,41.114,46.565,44.872,46.565,49.52C46.565,54.159,42.807,57.917,38.168,57.917C33.529,57.917,29.771,54.159,29.771,49.52C29.771,44.872,33.529,41.114,38.168,41.114L38.168,41.114ZM38.168,41.114"/>
</g>
  <g id="Black-M" transform="matrix(1.0,0.0,0.0,1.0,2893.5331508411746,1055.5400390625)">  <path stroke="none" y="0px" stroke-linejoin="miter" stroke-linecap="butt" x="0px" stroke-miterlimit="4" fill-rule="evenodd" stroke-width="1px" stroke-dasharray="none" fill="#000000" xmlns:xlink="http://www.w3.org/1999/xlink" fill-opacity="1" version="1.1" stroke-opacity="1" xml:space="preserve" d="M42.801,12.557L42.801,20.701L65.243,20.701C68.879,20.701,71.853,23.674,71.853,27.311L71.853,35.662L80.84,35.662C81.637,35.662,82.294,36.312,82.294,37.115L82.294,54.045C82.294,54.842,81.644,55.499,80.84,55.499L71.853,55.499L71.853,63.85C71.853,67.486,68.879,70.46,65.243,70.46L16.354,70.46C12.718,70.46,9.744,67.486,9.744,63.85L9.744,55.499L1.453,55.499C0.65,55.499,0,54.849,0,54.052L0,37.115C0,36.318,0.65,35.662,1.453,35.662L9.744,35.662L9.744,27.317C9.744,23.681,12.718,20.707,16.354,20.707L38.796,20.707L38.796,12.557C36.218,11.713,34.363,9.296,34.363,6.436C34.363,2.88,37.242,0,40.799,0C44.355,0,47.234,2.88,47.234,6.436C47.234,9.296,45.373,11.713,42.801,12.557L42.801,12.557ZM27.478,53.403L54.809,53.403C56.142,53.403,57.233,54.494,57.233,55.827L57.233,56.965C57.233,58.298,56.142,59.39,54.809,59.39L27.478,59.39C26.145,59.39,25.054,58.298,25.054,56.965L25.054,55.827C25.054,54.487,26.145,53.403,27.478,53.403L27.478,53.403ZM52.706,31.871C56.302,31.871,59.222,34.785,59.222,38.388C59.222,41.984,56.309,44.897,52.706,44.897C49.103,44.897,46.196,41.984,46.196,38.388C46.19,34.785,49.11,31.871,52.706,31.871L52.706,31.871ZM29.588,31.871C33.184,31.871,36.097,34.785,36.097,38.388C36.097,41.984,33.184,44.897,29.588,44.897C25.991,44.897,23.078,41.984,23.078,38.388C23.078,34.785,25.991,31.871,29.588,31.871L29.588,31.871ZM29.588,31.871"/>
</g>
  <g id="Heavy-M" transform="matrix(1.0,0.0,0.0,1.0,2596.8231508411745,1055.5400390625)">  <path fill="#000000" fill-rule="evenodd" stroke-miterlimit="4" x="0px" xml:space="preserve" stroke-width="1px" version="1.1" stroke-dasharray="none" y="0px" stroke-linejoin="miter" stroke="none" xmlns:xlink="http://www.w3.org/1999/xlink" stroke-linecap="butt" stroke-opacity="1" fill-opacity="1" d="M42.801,12.557L42.801,20.701L65.243,20.701C68.879,20.701,71.853,23.674,71.853,27.311L71.853,35.662L80.84,35.662C81.637,35.662,82.294,36.312,82.294,37.115L82.294,54.045C82.294,54.842,81.644,55.499,80.84,55.499L71.853,55.499L71.853,63.85C71.853,67.486,68.879,70.46,65.243,70.46L16.354,70.46C12.718,70.46,9.744,67.486,9.744,63.85L9.744,55.499L1.453,55.499C0.65,55.499,0,54.849,0,54.052L0,37.115C0,36.318,0.65,35.662,1.453,35.662L9.744,35.662L9.744,27.317C9.744,23.681,12.718,20.707,16.354,20.707L38.796,20.707L38.796,12.557C36.218,11.713,34.363,9.296,34.363,6.436C34.363,2.88,37.242,0,40.799,0C44.355,0,47.234,2.88,47.234,6.436C47.234,9.296,45.373,11.713,42.801,12.557L42.801,12.557ZM27.478,53.403L54.809,53.403C56.142,53.403,57.233,54.494,57.233,55.827L57.233,56.965C57.233,58.298,56.142,59.39,54.809,59.39L27.478,59.39C26.145,59.39,25.054,58.298,25.054,56.965L25.054,55.827C25.054,54.487,26.145,53.403,27.478,53.403L27.478,53.403ZM52.706,31.871C56.302,31.871,59.222,34.785,59.222,38.388C59.222,41.984,56.309,44.897,52.706,44.897C49.103,44.897,46.196,41.984,46.196,38.388C46.19,34.785,49.11,31.871,52.706,31.871L52.706,31.871ZM29.588,31.871C33.184,31.871,36.097,34.785,36.097,38.388C36.097,41.984,33.184,44.897,29.588,44.897C25.991,44.897,23.078,41.984,23.078,38.388C23.078,34.785,25.991,31.871,29.588,31.871L29.588,31.871ZM29.588,31.871"/>
</g>
  <g id="Bold-M" transform="matrix(1.0,0.0,0.0,1.0,2300.1131508411745,1055.5400390625)">  <path stroke-linecap="butt" stroke-width="1px" fill-rule="evenodd" xml:space="preserve" x="0px" stroke="none" stroke-opacity="1" y="0px" fill-opacity="1" stroke-miterlimit="4" xmlns:xlink="http://www.w3.org/1999/xlink" stroke-dasharray="none" version="1.1" fill="#000000" stroke-linejoin="miter" d="M42.801,12.557L42.801,20.701L65.243,20.701C68.879,20.701,71.853,23.674,71.853,27.311L71.853,35.662L80.84,35.662C81.637,35.662,82.294,36.312,82.294,37.115L82.294,54.045C82.294,54.842,81.644,55.499,80.84,55.499L71.853,55.499L71.853,63.85C71.853,67.486,68.879,70.46,65.243,70.46L16.354,70.46C12.718,70.46,9.744,67.486,9.744,63.85L9.744,55.499L1.453,55.499C0.65,55.499,0,54.849,0,54.052L0,37.115C0,36.318,0.65,35.662,1.453,35.662L9.744,35.662L9.744,27.317C9.744,23.681,12.718,20.707,16.354,20.707L38.796,20.707L38.796,12.557C36.218,11.713,34.363,9.296,34.363,6.436C34.363,2.88,37.242,0,40.799,0C44.355,0,47.234,2.88,47.234,6.436C47.234,9.296,45.373,11.713,42.801,12.557L42.801,12.557ZM27.478,53.403L54.809,53.403C56.142,53.403,57.233,54.494,57.233,55.827L57.233,56.965C57.233,58.298,56.142,59.39,54.809,59.39L27.478,59.39C26.145,59.39,25.054,58.298,25.054,56.965L25.054,55.827C25.054,54.487,26.145,53.403,27.478,53.403L27.478,53.403ZM52.706,31.871C56.302,31.871,59.222,34.785,59.222,38.388C59.222,41.984,56.309,44.897,52.706,44.897C49.103,44.897,46.196,41.984,46.196,38.388C46.19,34.785,49.11,31.871,52.706,31.871L52.706,31.871ZM29.588,31.871C33.184,31.871,36.097,34.785,36.097,38.388C36.097,41.984,33.184,44.897,29.588,44.897C25.991,44.897,23.078,41.984,23.078,38.388C23.078,34.785,25.991,31.871,29.588,31.871L29.588,31.871ZM29.588,31.871"/>
</g>
  <g id="Semibold-M" transform="matrix(1.0,0.0,0.0,1.0,2003.4031508411747,1055.5400390625)">  <path stroke-linejoin="miter" stroke-miterlimit="4" xml:space="preserve" version="1.1" xmlns:xlink="http://www.w3.org/1999/xlink" stroke-linecap="butt" stroke-opacity="1" stroke-dasharray="none" stroke="none" fill="#000000" fill-rule="evenodd" y="0px" stroke-width="1px" fill-opacity="1" x="0px" d="M42.801,12.557L42.801,20.701L65.243,20.701C68.879,20.701,71.853,23.674,71.853,27.311L71.853,35.662L80.84,35.662C81.637,35.662,82.294,36.312,82.294,37.115L82.294,54.045C82.294,54.842,81.644,55.499,80.84,55.499L71.853,55.499L71.853,63.85C71.853,67.486,68.879,70.46,65.243,70.46L16.354,70.46C12.718,70.46,9.744,67.486,9.744,63.85L9.744,55.499L1.453,55.499C0.65,55.499,0,54.849,0,54.052L0,37.115C0,36.318,0.65,35.662,1.453,35.662L9.744,35.662L9.744,27.317C9.744,23.681,12.718,20.707,16.354,20.707L38.796,20.707L38.796,12.557C36.218,11.713,34.363,9.296,34.363,6.436C34.363,2.88,37.242,0,40.799,0C44.355,0,47.234,2.88,47.234,6.436C47.234,9.296,45.373,11.713,42.801,12.557L42.801,12.557ZM27.478,53.403L54.809,53.403C56.142,53.403,57.233,54.494,57.233,55.827L57.233,56.965C57.233,58.298,56.142,59.39,54.809,59.39L27.478,59.39C26.145,59.39,25.054,58.298,25.054,56.965L25.054,55.827C25.054,54.487,26.145,53.403,27.478,53.403L27.478,53.403ZM52.706,31.871C56.302,31.871,59.222,34.785,59.222,38.388C59.222,41.984,56.309,44.897,52.706,44.897C49.103,44.897,46.196,41.984,46.196,38.388C46.19,34.785,49.11,31.871,52.706,31.871L52.706,31.871ZM29.588,31.871C33.184,31.871,36.097,34.785,36.097,38.388C36.097,41.984,33.184,44.897,29.588,44.897C25.991,44.897,23.078,41.984,23.078,38.388C23.078,34.785,25.991,31.871,29.588,31.871L29.588,31.871ZM29.588,31.871"/>
</g>
  <g id="Medium-M" transform="matrix(1.0,0.0,0.0,1.0,1706.6931508411747,1055.5400390625)">  <path y="0px" stroke-miterlimit="4" fill-rule="evenodd" x="0px" xmlns:xlink="http://www.w3.org/1999/xlink" stroke-dasharray="none" fill="#000000" stroke-opacity="1" stroke="none" stroke-linejoin="miter" stroke-width="1px" fill-opacity="1" version="1.1" xml:space="preserve" stroke-linecap="butt" d="M42.801,12.557L42.801,20.701L65.243,20.701C68.879,20.701,71.853,23.674,71.853,27.311L71.853,35.662L80.84,35.662C81.637,35.662,82.294,36.312,82.294,37.115L82.294,54.045C82.294,54.842,81.644,55.499,80.84,55.499L71.853,55.499L71.853,63.85C71.853,67.486,68.879,70.46,65.243,70.46L16.354,70.46C12.718,70.46,9.744,67.486,9.744,63.85L9.744,55.499L1.453,55.499C0.65,55.499,0,54.849,0,54.052L0,37.115C0,36.318,0.65,35.662,1.453,35.662L9.744,35.662L9.744,27.317C9.744,23.681,12.718,20.707,16.354,20.707L38.796,20.707L38.796,12.557C36.218,11.713,34.363,9.296,34.363,6.436C34.363,2.88,37.242,0,40.799,0C44.355,0,47.234,2.88,47.234,6.436C47.234,9.296,45.373,11.713,42.801,12.557L42.801,12.557ZM27.478,53.403L54.809,53.403C56.142,53.403,57.233,54.494,57.233,55.827L57.233,56.965C57.233,58.298,56.142,59.39,54.809,59.39L27.478,59.39C26.145,59.39,25.054,58.298,25.054,56.965L25.054,55.827C25.054,54.487,26.145,53.403,27.478,53.403L27.478,53.403ZM52.706,31.871C56.302,31.871,59.222,34.785,59.222,38.388C59.222,41.984,56.309,44.897,52.706,44.897C49.103,44.897,46.196,41.984,46.196,38.388C46.19,34.785,49.11,31.871,52.706,31.871L52.706,31.871ZM29.588,31.871C33.184,31.871,36.097,34.785,36.097,38.388C36.097,41.984,33.184,44.897,29.588,44.897C25.991,44.897,23.078,41.984,23.078,38.388C23.078,34.785,25.991,31.871,29.588,31.871L29.588,31.871ZM29.588,31.871"/>
</g>
  <g id="Regular-M" transform="matrix(1.0,0.0,0.0,1.0,1409.9831508411746,1055.5400390625)">  <path x="0px" stroke-linejoin="miter" stroke="none" stroke-dasharray="none" fill-rule="evenodd" version="1.1" y="0px" stroke-miterlimit="4" stroke-width="1px" xml:space="preserve" fill="#000000" fill-opacity="1" stroke-linecap="butt" xmlns:xlink="http://www.w3.org/1999/xlink" stroke-opacity="1" d="M42.801,12.557L42.801,20.701L65.243,20.701C68.879,20.701,71.853,23.674,71.853,27.311L71.853,35.662L80.84,35.662C81.637,35.662,82.294,36.312,82.294,37.115L82.294,54.045C82.294,54.842,81.644,55.499,80.84,55.499L71.853,55.499L71.853,63.85C71.853,67.486,68.879,70.46,65.243,70.46L16.354,70.46C12.718,70.46,9.744,67.486,9.744,63.85L9.744,55.499L1.453,55.499C0.65,55.499,0,54.849,0,54.052L0,37.115C0,36.318,0.65,35.662,1.453,35.662L9.744,35.662L9.744,27.317C9.744,23.681,12.718,20.707,16.354,20.707L38.796,20.707L38.796,12.557C36.218,11.713,34.363,9.296,34.363,6.436C34.363,2.88,37.242,0,40.799,0C44.355,0,47.234,2.88,47.234,6.436C47.234,9.296,45.373,11.713,42.801,12.557L42.801,12.557ZM27.478,53.403L54.809,53.403C56.142,53.403,57.233,54.494,57.233,55.827L57.233,56.965C57.233,58.298,56.142,59.39,54.809,59.39L27.478,59.39C26.145,59.39,25.054,58.298,25.054,56.965L25.054,55.827C25.054,54.487,26.145,53.403,27.478,53.403L27.478,53.403ZM52.706,31.871C56.302,31.871,59.222,34.785,59.222,38.388C59.222,41.984,56.309,44.897,52.706,44.897C49.103,44.897,46.196,41.984,46.196,38.388C46.19,34.785,49.11,31.871,52.706,31.871L52.706,31.871ZM29.588,31.871C33.184,31.871,36.097,34.785,36.097,38.388C36.097,41.984,33.184,44.897,29.588,44.897C25.991,44.897,23.078,41.984,23.078,38.388C23.078,34.785,25.991,31.871,29.588,31.871L29.588,31.871ZM29.588,31.871"/>
</g>
  <g id="Light-M" transform="matrix(1.0,0.0,0.0,1.0,1113.2731508411748,1055.5400390625)">  <path xml:space="preserve" stroke-miterlimit="4" version="1.1" fill="#000000" stroke-width="1px" stroke-linecap="butt" stroke-opacity="1" y="0px" stroke-linejoin="miter" fill-rule="evenodd" stroke-dasharray="none" stroke="none" xmlns:xlink="http://www.w3.org/1999/xlink" x="0px" fill-opacity="1" d="M42.801,12.557L42.801,20.701L65.243,20.701C68.879,20.701,71.853,23.674,71.853,27.311L71.853,35.662L80.84,35.662C81.637,35.662,82.294,36.312,82.294,37.115L82.294,54.045C82.294,54.842,81.644,55.499,80.84,55.499L71.853,55.499L71.853,63.85C71.853,67.486,68.879,70.46,65.243,70.46L16.354,70.46C12.718,70.46,9.744,67.486,9.744,63.85L9.744,55.499L1.453,55.499C0.65,55.499,0,54.849,0,54.052L0,37.115C0,36.318,0.65,35.662,1.453,35.662L9.744,35.662L9.744,27.317C9.744,23.681,12.718,20.707,16.354,20.707L38.796,20.707L38.796,12.557C36.218,11.713,34.363,9.296,34.363,6.436C34.363,2.88,37.242,0,40.799,0C44.355,0,47.234,2.88,47.234,6.436C47.234,9.296,45.373,11.713,42.801,12.557L42.801,12.557ZM27.478,53.403L54.809,53.403C56.142,53.403,57.233,54.494,57.233,55.827L57.233,56.965C57.233,58.298,56.142,59.39,54.809,59.39L27.478,59.39C26.145,59.39,25.054,58.298,25.054,56.965L25.054,55.827C25.054,54.487,26.145,53.403,27.478,53.403L27.478,53.403ZM52.706,31.871C56.302,31.871,59.222,34.785,59.222,38.388C59.222,41.984,56.309,44.897,52.706,44.897C49.103,44.897,46.196,41.984,46.196,38.388C46.19,34.785,49.11,31.871,52.706,31.871L52.706,31.871ZM29.588,31.871C33.184,31.871,36.097,34.785,36.097,38.388C36.097,41.984,33.184,44.897,29.588,44.897C25.991,44.897,23.078,41.984,23.078,38.388C23.078,34.785,25.991,31.871,29.588,31.871L29.588,31.871ZM29.588,31.871"/>
</g>
  <g id="Thin-M" transform="matrix(1.0,0.0,0.0,1.0,816.5631508411748,1055.5400390625)">  <path stroke="none" stroke-miterlimit="4" fill="#000000" stroke-opacity="1" version="1.1" stroke-linejoin="miter" stroke-width="1px" xml:space="preserve" stroke-dasharray="none" y="0px" x="0px" fill-opacity="1" fill-rule="evenodd" xmlns:xlink="http://www.w3.org/1999/xlink" stroke-linecap="butt" d="M42.801,12.557L42.801,20.701L65.243,20.701C68.879,20.701,71.853,23.674,71.853,27.311L71.853,35.662L80.84,35.662C81.637,35.662,82.294,36.312,82.294,37.115L82.294,54.045C82.294,54.842,81.644,55.499,80.84,55.499L71.853,55.499L71.853,63.85C71.853,67.486,68.879,70.46,65.243,70.46L16.354,70.46C12.718,70.46,9.744,67.486,9.744,63.85L9.744,55.499L1.453,55.499C0.65,55.499,0,54.849,0,54.052L0,37.115C0,36.318,0.65,35.662,1.453,35.662L9.744,35.662L9.744,27.317C9.744,23.681,12.718,20.707,16.354,20.707L38.796,20.707L38.796,12.557C36.218,11.713,34.363,9.296,34.363,6.436C34.363,2.88,37.242,0,40.799,0C44.355,0,47.234,2.88,47.234,6.436C47.234,9.296,45.373,11.713,42.801,12.557L42.801,12.557ZM27.478,53.403L54.809,53.403C56.142,53.403,57.233,54.494,57.233,55.827L57.233,56.965C57.233,58.298,56.142,59.39,54.809,59.39L27.478,59.39C26.145,59.39,25.054,58.298,25.054,56.965L25.054,55.827C25.054,54.487,26.145,53.403,27.478,53.403L27.478,53.403ZM52.706,31.871C56.302,31.871,59.222,34.785,59.222,38.388C59.222,41.984,56.309,44.897,52.706,44.897C49.103,44.897,46.196,41.984,46.196,38.388C46.19,34.785,49.11,31.871,52.706,31.871L52.706,31.871ZM29.588,31.871C33.184,31.871,36.097,34.785,36.097,38.388C36.097,41.984,33.184,44.897,29.588,44.897C25.991,44.897,23.078,41.984,23.078,38.388C23.078,34.785,25.991,31.871,29.588,31.871L29.588,31.871ZM29.588,31.871"/>
</g>
  <g id="Ultralight-M" transform="matrix(1.0,0.0,0.0,1.0,519.8531508411747,1055.5400390625)">  <path stroke-miterlimit="4" stroke-linejoin="miter" version="1.1" xmlns:xlink="http://www.w3.org/1999/xlink" stroke-linecap="butt" fill-rule="evenodd" stroke="none" fill="#000000" stroke-width="1px" stroke-dasharray="none" fill-opacity="1" xml:space="preserve" x="0px" stroke-opacity="1" y="0px" d="M42.801,12.557L42.801,20.701L65.243,20.701C68.879,20.701,71.853,23.674,71.853,27.311L71.853,35.662L80.84,35.662C81.637,35.662,82.294,36.312,82.294,37.115L82.294,54.045C82.294,54.842,81.644,55.499,80.84,55.499L71.853,55.499L71.853,63.85C71.853,67.486,68.879,70.46,65.243,70.46L16.354,70.46C12.718,70.46,9.744,67.486,9.744,63.85L9.744,55.499L1.453,55.499C0.65,55.499,0,54.849,0,54.052L0,37.115C0,36.318,0.65,35.662,1.453,35.662L9.744,35.662L9.744,27.317C9.744,23.681,12.718,20.707,16.354,20.707L38.796,20.707L38.796,12.557C36.218,11.713,34.363,9.296,34.363,6.436C34.363,2.88,37.242,0,40.799,0C44.355,0,47.234,2.88,47.234,6.436C47.234,9.296,45.373,11.713,42.801,12.557L42.801,12.557ZM27.478,53.403L54.809,53.403C56.142,53.403,57.233,54.494,57.233,55.827L57.233,56.965C57.233,58.298,56.142,59.39,54.809,59.39L27.478,59.39C26.145,59.39,25.054,58.298,25.054,56.965L25.054,55.827C25.054,54.487,26.145,53.403,27.478,53.403L27.478,53.403ZM52.706,31.871C56.302,31.871,59.222,34.785,59.222,38.388C59.222,41.984,56.309,44.897,52.706,44.897C49.103,44.897,46.196,41.984,46.196,38.388C46.19,34.785,49.11,31.871,52.706,31.871L52.706,31.871ZM29.588,31.871C33.184,31.871,36.097,34.785,36.097,38.388C36.097,41.984,33.184,44.897,29.588,44.897C25.991,44.897,23.078,41.984,23.078,38.388C23.078,34.785,25.991,31.871,29.588,31.871L29.588,31.871ZM29.588,31.871"/>
</g>
  <g id="Black-S" transform="matrix(1.0,0.0,0.0,1.0,2902.46201710864,633.1849448242187)">  <path stroke="none" y="0px" stroke-linejoin="miter" stroke-linecap="butt" x="0px" stroke-miterlimit="4" fill-rule="evenodd" stroke-width="1px" stroke-dasharray="none" fill="#000000" xmlns:xlink="http://www.w3.org/1999/xlink" fill-opacity="1" version="1.1" stroke-opacity="1" xml:space="preserve" d="M33.513,9.832L33.513,16.209L51.085,16.209C53.933,16.209,56.261,18.537,56.261,21.384L56.261,27.923L63.298,27.923C63.922,27.923,64.436,28.432,64.436,29.061L64.436,42.318C64.436,42.942,63.927,43.455,63.298,43.455L56.261,43.455L56.261,49.995C56.261,52.842,53.933,55.17,51.085,55.17L12.805,55.17C9.958,55.17,7.63,52.842,7.63,49.995L7.63,43.455L1.138,43.455C0.509,43.455,0,42.947,0,42.323L0,29.061C0,28.437,0.509,27.923,1.138,27.923L7.63,27.923L7.63,21.39C7.63,18.542,9.958,16.214,12.805,16.214L30.377,16.214L30.377,9.832C28.359,9.171,26.906,7.278,26.906,5.039C26.906,2.255,29.161,0,31.945,0C34.73,0,36.985,2.255,36.985,5.039C36.985,7.278,35.527,9.171,33.513,9.832L33.513,9.832ZM21.515,41.814L42.915,41.814C43.959,41.814,44.814,42.669,44.814,43.712L44.814,44.604C44.814,45.647,43.959,46.502,42.915,46.502L21.515,46.502C20.472,46.502,19.617,45.647,19.617,44.604L19.617,43.712C19.617,42.664,20.472,41.814,21.515,41.814L21.515,41.814ZM41.269,24.955C44.085,24.955,46.371,27.236,46.371,30.058C46.371,32.873,44.09,35.155,41.269,35.155C38.448,35.155,36.172,32.873,36.172,30.058C36.167,27.236,38.453,24.955,41.269,24.955L41.269,24.955ZM23.167,24.955C25.983,24.955,28.264,27.236,28.264,30.058C28.264,32.873,25.983,35.155,23.167,35.155C20.351,35.155,18.07,32.873,18.07,30.058C18.07,27.236,20.351,24.955,23.167,24.955L23.167,24.955ZM23.167,24.955"/>
</g>
  <g id="Heavy-S" transform="matrix(1.0,0.0,0.0,1.0,2605.75201710864,633.1849448242187)">  <path fill="#000000" fill-rule="evenodd" stroke-miterlimit="4" x="0px" xml:space="preserve" stroke-width="1px" version="1.1" stroke-dasharray="none" y="0px" stroke-linejoin="miter" stroke="none" xmlns:xlink="http://www.w3.org/1999/xlink" stroke-linecap="butt" stroke-opacity="1" fill-opacity="1" d="M33.513,9.832L33.513,16.209L51.085,16.209C53.933,16.209,56.261,18.537,56.261,21.384L56.261,27.923L63.298,27.923C63.922,27.923,64.436,28.432,64.436,29.061L64.436,42.318C64.436,42.942,63.927,43.455,63.298,43.455L56.261,43.455L56.261,49.995C56.261,52.842,53.933,55.17,51.085,55.17L12.805,55.17C9.958,55.17,7.63,52.842,7.63,49.995L7.63,43.455L1.138,43.455C0.509,43.455,0,42.947,0,42.323L0,29.061C0,28.437,0.509,27.923,1.138,27.923L7.63,27.923L7.63,21.39C7.63,18.542,9.958,16.214,12.805,16.214L30.377,16.214L30.377,9.832C28.359,9.171,26.906,7.278,26.906,5.039C26.906,2.255,29.161,0,31.945,0C34.73,0,36.985,2.255,36.985,5.039C36.985,7.278,35.527,9.171,33.513,9.832L33.513,9.832ZM21.515,41.814L42.915,41.814C43.959,41.814,44.814,42.669,44.814,43.712L44.814,44.604C44.814,45.647,43.959,46.502,42.915,46.502L21.515,46.502C20.472,46.502,19.617,45.647,19.617,44.604L19.617,43.712C19.617,42.664,20.472,41.814,21.515,41.814L21.515,41.814ZM41.269,24.955C44.085,24.955,46.371,27.236,46.371,30.058C46.371,32.873,44.09,35.155,41.269,35.155C38.448,35.155,36.172,32.873,36.172,30.058C36.167,27.236,38.453,24.955,41.269,24.955L41.269,24.955ZM23.167,24.955C25.983,24.955,28.264,27.236,28.264,30.058C28.264,32.873,25.983,35.155,23.167,35.155C20.351,35.155,18.07,32.873,18.07,30.058C18.07,27.236,20.351,24.955,23.167,24.955L23.167,24.955ZM23.167,24.955"/>
</g>
  <g id="Bold-S" transform="matrix(1.0,0.0,0.0,1.0,2309.04201710864,633.1849448242187)">  <path stroke-linecap="butt" stroke-width="1px" fill-rule="evenodd" xml:space="preserve" x="0px" stroke="none" stroke-opacity="1" y="0px" fill-opacity="1" stroke-miterlimit="4" xmlns:xlink="http://www.w3.org/1999/xlink" stroke-dasharray="none" version="1.1" fill="#000000" stroke-linejoin="miter" d="M33.513,9.832L33.513,16.209L51.085,16.209C53.933,16.209,56.261,18.537,56.261,21.384L56.261,27.923L63.298,27.923C63.922,27.923,64.436,28.432,64.436,29.061L64.436,42.318C64.436,42.942,63.927,43.455,63.298,43.455L56.261,43.455L56.261,49.995C56.261,52.842,53.933,55.17,51.085,55.17L12.805,55.17C9.958,55.17,7.63,52.842,7.63,49.995L7.63,43.455L1.138,43.455C0.509,43.455,0,42.947,0,42.323L0,29.061C0,28.437,0.509,27.923,1.138,27.923L7.63,27.923L7.63,21.39C7.63,18.542,9.958,16.214,12.805,16.214L30.377,16.214L30.377,9.832C28.359,9.171,26.906,7.278,26.906,5.039C26.906,2.255,29.161,0,31.945,0C34.73,0,36.985,2.255,36.985,5.039C36.985,7.278,35.527,9.171,33.513,9.832L33.513,9.832ZM21.515,41.814L42.915,41.814C43.959,41.814,44.814,42.669,44.814,43.712L44.814,44.604C44.814,45.647,43.959,46.502,42.915,46.502L21.515,46.502C20.472,46.502,19.617,45.647,19.617,44.604L19.617,43.712C19.617,42.664,20.472,41.814,21.515,41.814L21.515,41.814ZM41.269,24.955C44.085,24.955,46.371,27.236,46.371,30.058C46.371,32.873,44.09,35.155,41.269,35.155C38.448,35.155,36.172,32.873,36.172,30.058C36.167,27.236,38.453,24.955,41.269,24.955L41.269,24.955ZM23.167,24.955C25.983,24.955,28.264,27.236,28.264,30.058C28.264,32.873,25.983,35.155,23.167,35.155C20.351,35.155,18.07,32.873,18.07,30.058C18.07,27.236,20.351,24.955,23.167,24.955L23.167,24.955ZM23.167,24.955"/>
</g>
  <g id="Semibold-S" transform="matrix(1.0,0.0,0.0,1.0,2012.3320171086398,633.1849448242187)">  <path stroke-linejoin="miter" stroke-miterlimit="4" xml:space="preserve" version="1.1" xmlns:xlink="http://www.w3.org/1999/xlink" stroke-linecap="butt" stroke-opacity="1" stroke-dasharray="none" stroke="none" fill="#000000" fill-rule="evenodd" y="0px" stroke-width="1px" fill-opacity="1" x="0px" d="M33.513,9.832L33.513,16.209L51.085,16.209C53.933,16.209,56.261,18.537,56.261,21.384L56.261,27.923L63.298,27.923C63.922,27.923,64.436,28.432,64.436,29.061L64.436,42.318C64.436,42.942,63.927,43.455,63.298,43.455L56.261,43.455L56.261,49.995C56.261,52.842,53.933,55.17,51.085,55.17L12.805,55.17C9.958,55.17,7.63,52.842,7.63,49.995L7.63,43.455L1.138,43.455C0.509,43.455,0,42.947,0,42.323L0,29.061C0,28.437,0.509,27.923,1.138,27.923L7.63,27.923L7.63,21.39C7.63,18.542,9.958,16.214,12.805,16.214L30.377,16.214L30.377,9.832C28.359,9.171,26.906,7.278,26.906,5.039C26.906,2.255,29.161,0,31.945,0C34.73,0,36.985,2.255,36.985,5.039C36.985,7.278,35.527,9.171,33.513,9.832L33.513,9.832ZM21.515,41.814L42.915,41.814C43.959,41.814,44.814,42.669,44.814,43.712L44.814,44.604C44.814,45.647,43.959,46.502,42.915,46.502L21.515,46.502C20.472,46.502,19.617,45.647,19.617,44.604L19.617,43.712C19.617,42.664,20.472,41.814,21.515,41.814L21.515,41.814ZM41.269,24.955C44.085,24.955,46.371,27.236,46.371,30.058C46.371,32.873,44.09,35.155,41.269,35.155C38.448,35.155,36.172,32.873,36.172,30.058C36.167,27.236,38.453,24.955,41.269,24.955L41.269,24.955ZM23.167,24.955C25.983,24.955,28.264,27.236,28.264,30.058C28.264,32.873,25.983,35.155,23.167,35.155C20.351,35.155,18.07,32.873,18.07,30.058C18.07,27.236,20.351,24.955,23.167,24.955L23.167,24.955ZM23.167,24.955"/>
</g>
  <g id="Medium-S" transform="matrix(1.0,0.0,0.0,1.0,1715.6220171086397,633.1849448242187)">  <path y="0px" stroke-miterlimit="4" fill-rule="evenodd" x="0px" xmlns:xlink="http://www.w3.org/1999/xlink" stroke-dasharray="none" fill="#000000" stroke-opacity="1" stroke="none" stroke-linejoin="miter" stroke-width="1px" fill-opacity="1" version="1.1" xml:space="preserve" stroke-linecap="butt" d="M33.513,9.832L33.513,16.209L51.085,16.209C53.933,16.209,56.261,18.537,56.261,21.384L56.261,27.923L63.298,27.923C63.922,27.923,64.436,28.432,64.436,29.061L64.436,42.318C64.436,42.942,63.927,43.455,63.298,43.455L56.261,43.455L56.261,49.995C56.261,52.842,53.933,55.17,51.085,55.17L12.805,55.17C9.958,55.17,7.63,52.842,7.63,49.995L7.63,43.455L1.138,43.455C0.509,43.455,0,42.947,0,42.323L0,29.061C0,28.437,0.509,27.923,1.138,27.923L7.63,27.923L7.63,21.39C7.63,18.542,9.958,16.214,12.805,16.214L30.377,16.214L30.377,9.832C28.359,9.171,26.906,7.278,26.906,5.039C26.906,2.255,29.161,0,31.945,0C34.73,0,36.985,2.255,36.985,5.039C36.985,7.278,35.527,9.171,33.513,9.832L33.513,9.832ZM21.515,41.814L42.915,41.814C43.959,41.814,44.814,42.669,44.814,43.712L44.814,44.604C44.814,45.647,43.959,46.502,42.915,46.502L21.515,46.502C20.472,46.502,19.617,45.647,19.617,44.604L19.617,43.712C19.617,42.664,20.472,41.814,21.515,41.814L21.515,41.814ZM41.269,24.955C44.085,24.955,46.371,27.236,46.371,30.058C46.371,32.873,44.09,35.155,41.269,35.155C38.448,35.155,36.172,32.873,36.172,30.058C36.167,27.236,38.453,24.955,41.269,24.955L41.269,24.955ZM23.167,24.955C25.983,24.955,28.264,27.236,28.264,30.058C28.264,32.873,25.983,35.155,23.167,35.155C20.351,35.155,18.07,32.873,18.07,30.058C18.07,27.236,20.351,24.955,23.167,24.955L23.167,24.955ZM23.167,24.955"/>
</g>
  <g id="Regular-S" transform="matrix(1.0,0.0,0.0,1.0,1418.9120171086397,633.1849448242187)">  <path x="0px" stroke-linejoin="miter" stroke="none" stroke-dasharray="none" fill-rule="evenodd" version="1.1" y="0px" stroke-miterlimit="4" stroke-width="1px" xml:space="preserve" fill="#000000" fill-opacity="1" stroke-linecap="butt" xmlns:xlink="http://www.w3.org/1999/xlink" stroke-opacity="1" d="M33.513,9.832L33.513,16.209L51.085,16.209C53.933,16.209,56.261,18.537,56.261,21.384L56.261,27.923L63.298,27.923C63.922,27.923,64.436,28.432,64.436,29.061L64.436,42.318C64.436,42.942,63.927,43.455,63.298,43.455L56.261,43.455L56.261,49.995C56.261,52.842,53.933,55.17,51.085,55.17L12.805,55.17C9.958,55.17,7.63,52.842,7.63,49.995L7.63,43.455L1.138,43.455C0.509,43.455,0,42.947,0,42.323L0,29.061C0,28.437,0.509,27.923,1.138,27.923L7.63,27.923L7.63,21.39C7.63,18.542,9.958,16.214,12.805,16.214L30.377,16.214L30.377,9.832C28.359,9.171,26.906,7.278,26.906,5.039C26.906,2.255,29.161,0,31.945,0C34.73,0,36.985,2.255,36.985,5.039C36.985,7.278,35.527,9.171,33.513,9.832L33.513,9.832ZM21.515,41.814L42.915,41.814C43.959,41.814,44.814,42.669,44.814,43.712L44.814,44.604C44.814,45.647,43.959,46.502,42.915,46.502L21.515,46.502C20.472,46.502,19.617,45.647,19.617,44.604L19.617,43.712C19.617,42.664,20.472,41.814,21.515,41.814L21.515,41.814ZM41.269,24.955C44.085,24.955,46.371,27.236,46.371,30.058C46.371,32.873,44.09,35.155,41.269,35.155C38.448,35.155,36.172,32.873,36.172,30.058C36.167,27.236,38.453,24.955,41.269,24.955L41.269,24.955ZM23.167,24.955C25.983,24.955,28.264,27.236,28.264,30.058C28.264,32.873,25.983,35.155,23.167,35.155C20.351,35.155,18.07,32.873,18.07,30.058C18.07,27.236,20.351,24.955,23.167,24.955L23.167,24.955ZM23.167,24.955"/>
</g>
  <g id="Light-S" transform="matrix(1.0,0.0,0.0,1.0,1122.20201710864,633.1849448242187)">  <path xml:space="preserve" stroke-miterlimit="4" version="1.1" fill="#000000" stroke-width="1px" stroke-linecap="butt" stroke-opacity="1" y="0px" stroke-linejoin="miter" fill-rule="evenodd" stroke-dasharray="none" stroke="none" xmlns:xlink="http://www.w3.org/1999/xlink" x="0px" fill-opacity="1" d="M33.513,9.832L33.513,16.209L51.085,16.209C53.933,16.209,56.261,18.537,56.261,21.384L56.261,27.923L63.298,27.923C63.922,27.923,64.436,28.432,64.436,29.061L64.436,42.318C64.436,42.942,63.927,43.455,63.298,43.455L56.261,43.455L56.261,49.995C56.261,52.842,53.933,55.17,51.085,55.17L12.805,55.17C9.958,55.17,7.63,52.842,7.63,49.995L7.63,43.455L1.138,43.455C0.509,43.455,0,42.947,0,42.323L0,29.061C0,28.437,0.509,27.923,1.138,27.923L7.63,27.923L7.63,21.39C7.63,18.542,9.958,16.214,12.805,16.214L30.377,16.214L30.377,9.832C28.359,9.171,26.906,7.278,26.906,5.039C26.906,2.255,29.161,0,31.945,0C34.73,0,36.985,2.255,36.985,5.039C36.985,7.278,35.527,9.171,33.513,9.832L33.513,9.832ZM21.515,41.814L42.915,41.814C43.959,41.814,44.814,42.669,44.814,43.712L44.814,44.604C44.814,45.647,43.959,46.502,42.915,46.502L21.515,46.502C20.472,46.502,19.617,45.647,19.617,44.604L19.617,43.712C19.617,42.664,20.472,41.814,21.515,41.814L21.515,41.814ZM41.269,24.955C44.085,24.955,46.371,27.236,46.371,30.058C46.371,32.873,44.09,35.155,41.269,35.155C38.448,35.155,36.172,32.873,36.172,30.058C36.167,27.236,38.453,24.955,41.269,24.955L41.269,24.955ZM23.167,24.955C25.983,24.955,28.264,27.236,28.264,30.058C28.264,32.873,25.983,35.155,23.167,35.155C20.351,35.155,18.07,32.873,18.07,30.058C18.07,27.236,20.351,24.955,23.167,24.955L23.167,24.955ZM23.167,24.955"/>
</g>
  <g id="Thin-S" transform="matrix(1.0,0.0,0.0,1.0,825.4920171086399,633.1849448242187)">  <path stroke="none" stroke-miterlimit="4" fill="#000000" stroke-opacity="1" version="1.1" stroke-linejoin="miter" stroke-width="1px" xml:space="preserve" stroke-dasharray="none" y="0px" x="0px" fill-opacity="1" fill-rule="evenodd" xmlns:xlink="http://www.w3.org/1999/xlink" stroke-linecap="butt" d="M33.513,9.832L33.513,16.209L51.085,16.209C53.933,16.209,56.261,18.537,56.261,21.384L56.261,27.923L63.298,27.923C63.922,27.923,64.436,28.432,64.436,29.061L64.436,42.318C64.436,42.942,63.927,43.455,63.298,43.455L56.261,43.455L56.261,49.995C56.261,52.842,53.933,55.17,51.085,55.17L12.805,55.17C9.958,55.17,7.63,52.842,7.63,49.995L7.63,43.455L1.138,43.455C0.509,43.455,0,42.947,0,42.323L0,29.061C0,28.437,0.509,27.923,1.138,27.923L7.63,27.923L7.63,21.39C7.63,18.542,9.958,16.214,12.805,16.214L30.377,16.214L30.377,9.832C28.359,9.171,26.906,7.278,26.906,5.039C26.906,2.255,29.161,0,31.945,0C34.73,0,36.985,2.255,36.985,5.039C36.985,7.278,35.527,9.171,33.513,9.832L33.513,9.832ZM21.515,41.814L42.915,41.814C43.959,41.814,44.814,42.669,44.814,43.712L44.814,44.604C44.814,45.647,43.959,46.502,42.915,46.502L21.515,46.502C20.472,46.502,19.617,45.647,19.617,44.604L19.617,43.712C19.617,42.664,20.472,41.814,21.515,41.814L21.515,41.814ZM41.269,24.955C44.085,24.955,46.371,27.236,46.371,30.058C46.371,32.873,44.09,35.155,41.269,35.155C38.448,35.155,36.172,32.873,36.172,30.058C36.167,27.236,38.453,24.955,41.269,24.955L41.269,24.955ZM23.167,24.955C25.983,24.955,28.264,27.236,28.264,30.058C28.264,32.873,25.983,35.155,23.167,35.155C20.351,35.155,18.07,32.873,18.07,30.058C18.07,27.236,20.351,24.955,23.167,24.955L23.167,24.955ZM23.167,24.955"/>
</g>
  <g id="Ultralight-S" transform="matrix(1.0,0.0,0.0,1.0,528.7820171086398,633.1849448242187)">  <path stroke-miterlimit="4" stroke-linejoin="miter" version="1.1" xmlns:xlink="http://www.w3.org/1999/xlink" stroke-linecap="butt" fill-rule="evenodd" stroke="none" fill="#000000" stroke-width="1px" stroke-dasharray="none" fill-opacity="1" xml:space="preserve" x="0px" stroke-opacity="1" y="0px" d="M33.513,9.832L33.513,16.209L51.085,16.209C53.933,16.209,56.261,18.537,56.261,21.384L56.261,27.923L63.298,27.923C63.922,27.923,64.436,28.432,64.436,29.061L64.436,42.318C64.436,42.942,63.927,43.455,63.298,43.455L56.261,43.455L56.261,49.995C56.261,52.842,53.933,55.17,51.085,55.17L12.805,55.17C9.958,55.17,7.63,52.842,7.63,49.995L7.63,43.455L1.138,43.455C0.509,43.455,0,42.947,0,42.323L0,29.061C0,28.437,0.509,27.923,1.138,27.923L7.63,27.923L7.63,21.39C7.63,18.542,9.958,16.214,12.805,16.214L30.377,16.214L30.377,9.832C28.359,9.171,26.906,7.278,26.906,5.039C26.906,2.255,29.161,0,31.945,0C34.73,0,36.985,2.255,36.985,5.039C36.985,7.278,35.527,9.171,33.513,9.832L33.513,9.832ZM21.515,41.814L42.915,41.814C43.959,41.814,44.814,42.669,44.814,43.712L44.814,44.604C44.814,45.647,43.959,46.502,42.915,46.502L21.515,46.502C20.472,46.502,19.617,45.647,19.617,44.604L19.617,43.712C19.617,42.664,20.472,41.814,21.515,41.814L21.515,41.814ZM41.269,24.955C44.085,24.955,46.371,27.236,46.371,30.058C46.371,32.873,44.09,35.155,41.269,35.155C38.448,35.155,36.172,32.873,36.172,30.058C36.167,27.236,38.453,24.955,41.269,24.955L41.269,24.955ZM23.167,24.955C25.983,24.955,28.264,27.236,28.264,30.058C28.264,32.873,25.983,35.155,23.167,35.155C20.351,35.155,18.07,32.873,18.07,30.058C18.07,27.236,20.351,24.955,23.167,24.955L23.167,24.955ZM23.167,24.955"/>
</g>
 </g>
</svg>
